<?xml version="1.0" encoding="utf-8"?>
<!-- Generator: Adobe Illustrator 18.1.0, SVG Export Plug-In . SVG Version: 6.00 Build 0)  -->
<!DOCTYPE svg PUBLIC "-//W3C//DTD SVG 1.1//EN" "http://www.w3.org/Graphics/SVG/1.1/DTD/svg11.dtd">
<svg version="1.1" id="Capa_1" xmlns="http://www.w3.org/2000/svg" xmlns:xlink="http://www.w3.org/1999/xlink" x="0px" y="0px"
	 viewBox="0 0 416.8 209" enable-background="new 0 0 416.8 209" xml:space="preserve">
<g>
	<g>
		<rect x="238.5" y="46.8" fill="#DBDCDE" width="160.7" height="21.1"/>
		<g>
			<circle fill="none" stroke="#616161" stroke-miterlimit="10" cx="172" cy="105.5" r="22.2"/>
			<g>
				<defs>
					<rect id="SVGID_1_" x="161.2" y="93.3" width="21.1" height="24.9"/>
				</defs>
				<clipPath id="SVGID_2_">
					<use xlink:href="#SVGID_1_"  overflow="visible"/>
				</clipPath>
				<path clip-path="url(#SVGID_2_)" fill="#616161" d="M164.3,113.1h16.9c0.1,0,0.1,0,0.1,0c0,0,0,0,0,0c0.4,0,0.7-0.3,0.7-0.7V94
					c0-0.4-0.3-0.7-0.7-0.7h-17c-1.7,0-3.1,1.4-3.1,3.1c0,0,0,0,0,0.1c0,1.6,0,16.3,0,18.3c0,0,0,0.1,0,0.1c0,1.7,1.3,3,2.9,3.1
					c0,0,0.1,0,0.1,0h17.1c0.4,0,0.7-0.3,0.7-0.7V115c0-0.4-0.3-0.7-0.7-0.7c-0.4,0-0.7,0.3-0.7,0.7v1.8h-16.4c-1,0-1.8-0.8-1.8-1.8
					c0,0,0,0,0,0c0,0,0-0.1,0-0.1C162.5,113.8,163.3,113.1,164.3,113.1 M164.8,96.5c0-0.4,0.3-0.7,0.7-0.7c0.4,0,0.7,0.3,0.7,0.7
					v13.2c0,0.4-0.3,0.7-0.7,0.7c-0.4,0-0.7-0.3-0.7-0.7V96.5z"/>
			</g>
		</g>
		<g>
			<circle fill="none" stroke="#616161" stroke-miterlimit="10" cx="172" cy="159.8" r="22.2"/>
			<path fill-rule="evenodd" clip-rule="evenodd" fill="#616161" d="M171.4,159.2c-1-0.8-2.5-1.7-3.9-1.1c-1.8,0.8-1.6,3-2.4,3.8
				c-0.8,0.8-4.1-0.2-6.7,2.4c-2.6,2.6-1.6,6,1,8.6c2.7,2.7,6.1,3.3,8.7,0.7c2.5-2.5,1-5.3,2-6.3c1-1,2.5-1,3-1.6
				c0.6-0.6,0.8-0.9,0.5-1.2c-0.3-0.3-1.2,0.2-2-0.5c-0.5-0.5-0.4-1.4,0-2.2l8-8.4c0.1,0,0.2,0,0.2,0c0.3-0.3,0.5-0.4,0.9-0.6
				c0.5-0.1,0.9,0,1.1-0.3l1-1.7c0.6-1.1,1.6-1,1.7-1.3l0.5-1.2c0.2-0.4-0.2-0.5-0.6-0.4c-0.2,0-0.5,0.1-0.9,0.3l-0.1-0.2
				c0.1,0,0.1-0.1,0.2-0.2l-0.1-0.3c-0.1,0-0.3-0.1-0.6,0.3l0.1,0.3c0.1,0,0.1,0,0.2,0l0.1,0.2c-0.2,0.1-0.4,0.2-0.6,0.3l-0.1-0.2
				c0.1,0,0.1-0.1,0.2-0.2l-0.1-0.3c-0.1,0-0.3-0.1-0.6,0.3l0.1,0.3c0.1,0,0.1,0,0.2,0l0.1,0.1c-0.2,0.1-0.4,0.2-0.6,0.3l-0.1-0.1
				c0.1,0,0.1-0.1,0.2-0.2l-0.1-0.3c-0.1,0-0.3-0.1-0.6,0.3l0.1,0.3c0.1,0,0.1,0,0.2,0l0.1,0.1c-0.2,0.1-0.4,0.2-0.6,0.3l-0.1-0.1
				c0.1,0,0.1-0.1,0.2-0.2l-0.1-0.3c-0.1,0-0.3-0.1-0.6,0.3l0.1,0.3c0.1,0,0.1,0,0.2,0l0.1,0.1c-0.2,0.1-0.4,0.2-0.6,0.3l-0.1-0.1
				c0.1,0,0.1-0.1,0.2-0.2l-0.1-0.3c-0.1,0-0.3-0.1-0.6,0.3l0.1,0.3c0.1,0,0.1,0,0.2,0l0.1,0.1c-0.2,0.1-0.4,0.3-0.6,0.4l0-0.1
				c0.1,0,0.1-0.1,0.2-0.2l-0.1-0.3c-0.1,0-0.3-0.1-0.6,0.3l0.1,0.3c0.1,0,0.1,0,0.2,0l0,0.1c-0.2,0.1-0.3,0.3-0.3,0.3l-0.3,1.3
				c0,0,0,0,0,0L171.4,159.2z"/>
		</g>
		<rect x="201.6" y="46.8" fill="#AC603E" width="157.1" height="21.1"/>
		<g>
			<g>
				<path fill="#AC603E" d="M210.7,36.2l-5.7,0.1l-0.2,3.4c0,0.3,0,0.5,0,0.8c0,0.2,0,0.4-0.1,0.5l1.1-0.1l0,0.7h-3.5l0-0.5
					c0.3,0,0.5-0.1,0.7-0.2c0.2-0.1,0.3-0.2,0.3-0.4c0.1-0.2,0.1-0.4,0.1-0.6c0-0.2,0-0.5,0-0.8l0.4-6.9c0-0.2,0-0.4,0-0.6
					c0-0.2,0-0.4,0.1-0.5l-1.2,0.1l0-0.7h3.5l0,0.5c-0.3,0-0.5,0.1-0.6,0.1c-0.2,0.1-0.3,0.2-0.4,0.3c-0.1,0.1-0.1,0.3-0.2,0.5
					c0,0.2-0.1,0.5-0.1,0.8l-0.2,2.9h5.7l0.2-3.4c0-0.2,0-0.4,0-0.6c0-0.2,0-0.4,0.1-0.5l-1.2,0.1l0-0.7h3.5l0,0.5
					c-0.3,0-0.5,0.1-0.6,0.1c-0.2,0.1-0.3,0.2-0.4,0.3c-0.1,0.1-0.1,0.3-0.2,0.5c0,0.2-0.1,0.5-0.1,0.8l-0.4,7c0,0.3,0,0.5,0,0.8
					c0,0.2,0,0.4-0.1,0.5l1.1-0.1l0,0.7h-3.5l0-0.5c0.3,0,0.5-0.1,0.7-0.2c0.2-0.1,0.3-0.2,0.3-0.4c0.1-0.2,0.1-0.4,0.1-0.6
					c0-0.2,0-0.5,0-0.8L210.7,36.2z"/>
				<path fill="#AC603E" d="M217.6,41.8c-0.5,0-1-0.1-1.4-0.3c-0.4-0.2-0.7-0.4-1-0.8c-0.3-0.3-0.4-0.7-0.6-1.1
					c-0.1-0.4-0.2-0.9-0.2-1.4c0-0.6,0.1-1.3,0.3-1.8c0.2-0.6,0.4-1.1,0.8-1.5c0.3-0.4,0.8-0.8,1.2-1c0.5-0.3,1-0.4,1.7-0.4
					c0.4,0,0.8,0.1,1.2,0.2c0.4,0.2,0.7,0.4,1,0.7c0.3,0.3,0.5,0.7,0.6,1.1c0.2,0.4,0.2,0.9,0.2,1.5c0,0.6-0.1,1.3-0.3,1.8
					c-0.2,0.6-0.4,1.1-0.8,1.5c-0.3,0.4-0.7,0.8-1.2,1.1C218.8,41.6,218.3,41.8,217.6,41.8z M220.2,37.2c0-0.2,0-0.5,0-0.8
					c0-0.3-0.1-0.5-0.1-0.7c-0.1-0.2-0.1-0.5-0.2-0.7c-0.1-0.2-0.2-0.4-0.4-0.6c-0.1-0.2-0.3-0.3-0.5-0.4c-0.2-0.1-0.4-0.1-0.7-0.1
					c-0.4,0-0.7,0.1-1,0.3c-0.3,0.2-0.5,0.5-0.7,0.8c-0.2,0.3-0.3,0.8-0.4,1.2c-0.1,0.5-0.2,1-0.2,1.5c0,0.2,0,0.5,0,0.8
					c0,0.3,0.1,0.5,0.1,0.8c0.1,0.2,0.1,0.5,0.2,0.7c0.1,0.2,0.2,0.4,0.3,0.6c0.1,0.2,0.3,0.3,0.5,0.4c0.2,0.1,0.4,0.1,0.6,0.1
					c0.3,0,0.5-0.1,0.7-0.2c0.2-0.1,0.4-0.3,0.6-0.5c0.2-0.2,0.3-0.4,0.4-0.7c0.1-0.3,0.2-0.5,0.3-0.8c0.1-0.3,0.1-0.6,0.2-0.8
					C220.1,37.9,220.2,37.6,220.2,37.2z"/>
				<path fill="#AC603E" d="M225.1,32.2c-0.1,0.7-0.1,1.4-0.2,2.2c-0.1,0.8-0.2,1.6-0.2,2.4h0c0.1-0.5,0.3-1,0.5-1.3
					c0.2-0.4,0.3-0.7,0.5-0.9c0.2-0.3,0.4-0.5,0.5-0.6c0.2-0.2,0.4-0.3,0.6-0.3c0.2-0.1,0.4-0.1,0.5-0.2c0.2,0,0.3,0,0.5,0
					c0.4,0,0.7,0.1,0.9,0.2c0.3,0.2,0.5,0.4,0.6,0.6c0.2,0.3,0.3,0.6,0.3,0.9c0.1,0.4,0.1,0.7,0.1,1.1c0,0.7-0.1,1.4-0.2,2.1
					c-0.2,0.7-0.4,1.2-0.8,1.7c-0.4,0.5-0.8,0.9-1.4,1.2c-0.6,0.3-1.2,0.4-2,0.4c-0.1,0-0.3,0-0.5,0c-0.2,0-0.4,0-0.5-0.1
					c-0.2,0-0.4-0.1-0.6-0.1c-0.2,0-0.4-0.1-0.5-0.2c0.3-4,0.5-7.3,0.7-10.1c0-0.1,0-0.2,0-0.3s0-0.1,0-0.2c0-0.1,0-0.1,0-0.1
					c0,0,0-0.1,0-0.2l-1.1,0.1l0.1-0.6c0.3,0,0.6,0,0.9,0c0.2,0,0.4-0.1,0.6-0.1c0.2,0,0.3-0.1,0.4-0.1c0.1-0.1,0.2-0.1,0.2-0.2h0.5
					c0,0.2-0.1,0.5-0.1,0.7c0,0.2-0.1,0.5-0.1,0.7c0,0.2-0.1,0.5-0.1,0.7C225.1,31.8,225.1,32,225.1,32.2z M224.4,40.8
					c0.1,0.1,0.3,0.2,0.5,0.3c0.2,0.1,0.4,0.1,0.7,0.1c0.4,0,0.7-0.1,1-0.2c0.3-0.1,0.5-0.3,0.7-0.6c0.2-0.2,0.4-0.5,0.5-0.8
					c0.1-0.3,0.2-0.6,0.3-1c0.1-0.3,0.1-0.7,0.2-1c0-0.3,0.1-0.7,0.1-1c0-0.8-0.1-1.4-0.3-1.8c-0.2-0.4-0.5-0.7-0.8-0.7
					c-0.3,0-0.5,0.1-0.7,0.3c-0.2,0.2-0.5,0.5-0.7,0.8c-0.2,0.3-0.4,0.7-0.6,1.2c-0.2,0.5-0.3,0.9-0.5,1.4c-0.1,0.5-0.2,1-0.3,1.5
					C224.5,39.9,224.4,40.4,224.4,40.8z"/>
				<path fill="#AC603E" d="M233.3,32.2c-0.1,0.7-0.1,1.4-0.2,2.2c-0.1,0.8-0.2,1.6-0.2,2.4h0c0.1-0.5,0.3-1,0.5-1.3
					c0.2-0.4,0.3-0.7,0.5-0.9c0.2-0.3,0.4-0.5,0.5-0.6c0.2-0.2,0.4-0.3,0.6-0.3c0.2-0.1,0.4-0.1,0.5-0.2c0.2,0,0.3,0,0.5,0
					c0.4,0,0.7,0.1,0.9,0.2c0.3,0.2,0.5,0.4,0.6,0.6c0.2,0.3,0.3,0.6,0.3,0.9c0.1,0.4,0.1,0.7,0.1,1.1c0,0.7-0.1,1.4-0.2,2.1
					c-0.2,0.7-0.4,1.2-0.8,1.7c-0.4,0.5-0.8,0.9-1.4,1.2c-0.6,0.3-1.2,0.4-2,0.4c-0.1,0-0.3,0-0.5,0c-0.2,0-0.4,0-0.5-0.1
					c-0.2,0-0.4-0.1-0.6-0.1c-0.2,0-0.4-0.1-0.5-0.2c0.3-4,0.5-7.3,0.7-10.1c0-0.1,0-0.2,0-0.3c0-0.1,0-0.1,0-0.2c0-0.1,0-0.1,0-0.1
					c0,0,0-0.1,0-0.2l-1.1,0.1l0.1-0.6c0.3,0,0.6,0,0.9,0c0.2,0,0.4-0.1,0.6-0.1c0.2,0,0.3-0.1,0.4-0.1c0.1-0.1,0.2-0.1,0.2-0.2h0.5
					c0,0.2-0.1,0.5-0.1,0.7c0,0.2-0.1,0.5-0.1,0.7c0,0.2-0.1,0.5-0.1,0.7C233.3,31.8,233.3,32,233.3,32.2z M232.6,40.8
					c0.1,0.1,0.3,0.2,0.5,0.3c0.2,0.1,0.4,0.1,0.7,0.1c0.4,0,0.7-0.1,1-0.2c0.3-0.1,0.5-0.3,0.7-0.6c0.2-0.2,0.4-0.5,0.5-0.8
					c0.1-0.3,0.2-0.6,0.3-1c0.1-0.3,0.1-0.7,0.2-1c0-0.3,0.1-0.7,0.1-1c0-0.8-0.1-1.4-0.3-1.8c-0.2-0.4-0.5-0.7-0.8-0.7
					c-0.3,0-0.5,0.1-0.7,0.3c-0.2,0.2-0.5,0.5-0.7,0.8c-0.2,0.3-0.4,0.7-0.6,1.2c-0.2,0.5-0.3,0.9-0.5,1.4c-0.1,0.5-0.2,1-0.3,1.5
					C232.6,39.9,232.6,40.4,232.6,40.8z"/>
				<path fill="#AC603E" d="M242.1,35.1c0,0.3,0,0.7-0.1,1.1c-0.1,0.4-0.1,0.9-0.2,1.3c-0.1,0.5-0.1,0.9-0.2,1.4
					c-0.1,0.5-0.1,0.9-0.1,1.4c0,0.2,0,0.4,0.1,0.5c0.1,0.1,0.2,0.2,0.4,0.2c0.1,0,0.2,0,0.3-0.1c0.1-0.1,0.2-0.1,0.3-0.3
					c0.1-0.1,0.2-0.3,0.3-0.5c0.1-0.2,0.2-0.4,0.3-0.7l0.5,0.1c0,0.2-0.1,0.5-0.2,0.7c-0.1,0.3-0.2,0.5-0.4,0.7
					c-0.2,0.2-0.4,0.4-0.6,0.6c-0.2,0.2-0.5,0.2-0.8,0.2c-1,0-1.4-0.5-1.4-1.5c0-0.5,0-0.9,0.1-1.4c0.1-0.4,0.1-0.9,0.2-1.3
					c0.1-0.4,0.1-0.9,0.2-1.3c0.1-0.4,0.1-0.9,0.1-1.3c0-0.1,0-0.1,0-0.2c0-0.1,0-0.2-0.1-0.2c0-0.1-0.1-0.1-0.1-0.2
					c-0.1,0-0.1-0.1-0.2-0.1c-0.1,0-0.2,0-0.3,0.1c-0.1,0.1-0.2,0.1-0.3,0.3c-0.1,0.1-0.2,0.3-0.3,0.5c-0.1,0.2-0.2,0.4-0.3,0.7
					l-0.4-0.1c0-0.2,0.1-0.4,0.2-0.7c0.1-0.3,0.2-0.5,0.4-0.7c0.2-0.2,0.4-0.4,0.6-0.6c0.2-0.2,0.5-0.2,0.8-0.2c0.2,0,0.4,0,0.6,0.1
					c0.2,0.1,0.3,0.2,0.4,0.3c0.1,0.1,0.2,0.3,0.3,0.5C242.1,34.6,242.1,34.8,242.1,35.1z M242.5,30.9c0,0.1,0,0.3-0.1,0.4
					c0,0.1-0.1,0.2-0.2,0.3c-0.1,0.1-0.2,0.1-0.3,0.2c-0.1,0-0.2,0.1-0.3,0.1c-0.1,0-0.2,0-0.3-0.1c-0.1,0-0.2-0.1-0.3-0.2
					c-0.1-0.1-0.1-0.2-0.2-0.3c0-0.1-0.1-0.2-0.1-0.4c0-0.1,0-0.3,0.1-0.4c0-0.1,0.1-0.2,0.2-0.3c0.1-0.1,0.2-0.1,0.3-0.2
					c0.1,0,0.2-0.1,0.3-0.1c0.3,0,0.5,0.1,0.6,0.2C242.5,30.4,242.5,30.6,242.5,30.9z"/>
				<path fill="#AC603E" d="M250.6,35.3c0,0.3-0.1,0.6-0.2,0.8c-0.1,0.2-0.3,0.4-0.6,0.6c-0.2,0.2-0.5,0.4-0.8,0.5
					c-0.3,0.1-0.6,0.3-1,0.4c-0.3,0.1-0.7,0.2-1.1,0.3c-0.4,0.1-0.7,0.1-1,0.2c0,1,0.2,1.8,0.4,2.3c0.3,0.5,0.8,0.7,1.4,0.7
					c0.2,0,0.5,0,0.7-0.1c0.2-0.1,0.5-0.2,0.7-0.3c0.2-0.2,0.4-0.4,0.7-0.6c0.2-0.2,0.4-0.5,0.6-0.9l0.5,0.3
					c-0.4,0.8-0.9,1.5-1.5,1.8c-0.6,0.4-1.2,0.6-1.9,0.6c-0.5,0-1-0.1-1.3-0.3c-0.4-0.2-0.7-0.4-0.9-0.7c-0.2-0.3-0.4-0.7-0.5-1.1
					c-0.1-0.4-0.2-0.9-0.2-1.4c0-0.4,0-0.8,0.1-1.2c0.1-0.4,0.2-0.8,0.3-1.1c0.1-0.4,0.3-0.7,0.5-1c0.2-0.3,0.5-0.6,0.8-0.8
					c0.3-0.2,0.6-0.4,1-0.5c0.4-0.1,0.8-0.2,1.2-0.2c0.3,0,0.6,0,0.8,0.1c0.3,0.1,0.5,0.2,0.7,0.3c0.2,0.1,0.4,0.3,0.5,0.6
					C250.5,34.6,250.6,34.9,250.6,35.3z M248.1,34c-0.4,0-0.7,0.1-1,0.3c-0.3,0.2-0.5,0.5-0.7,0.8c-0.2,0.3-0.3,0.7-0.4,1.1
					c-0.1,0.4-0.2,0.8-0.2,1.3c0.4-0.1,0.8-0.1,1.2-0.3c0.4-0.1,0.8-0.3,1.1-0.5c0.3-0.2,0.6-0.4,0.8-0.6c0.2-0.2,0.3-0.5,0.3-0.8
					c0-0.2,0-0.3-0.1-0.5c0-0.1-0.1-0.3-0.2-0.4c-0.1-0.1-0.2-0.2-0.4-0.3C248.5,34,248.3,34,248.1,34z"/>
				<path fill="#616161" d="M262.3,37.9l-5.8,2.6v-0.8l4.9-2.2l-4.9-2.2v-0.8l5.8,2.5V37.9z"/>
				<path fill="#616161" d="M274,32.8c-0.5,0-0.9,0.1-1.3,0.3c-0.4,0.2-0.8,0.5-1.1,0.8c-0.3,0.4-0.5,0.8-0.7,1.3
					c-0.2,0.5-0.3,1.1-0.3,1.7c0,0.4,0,0.8,0.1,1.2c0.1,0.4,0.2,0.7,0.4,1c0.2,0.3,0.3,0.6,0.5,0.8c0.2,0.2,0.4,0.4,0.7,0.6
					c0.3,0.2,0.5,0.3,0.8,0.4c0.3,0.1,0.6,0.1,0.9,0.1c0.3,0,0.6,0,0.8-0.1c0.3-0.1,0.6-0.2,0.8-0.3c0.3-0.1,0.5-0.3,0.7-0.5
					c0.2-0.2,0.4-0.4,0.6-0.6l0.3,0.3c-0.3,0.4-0.6,0.7-0.9,0.9c-0.3,0.2-0.6,0.4-1,0.6c-0.3,0.1-0.6,0.2-1,0.3
					c-0.3,0.1-0.6,0.1-0.9,0.1c-0.7,0-1.2-0.1-1.8-0.4c-0.5-0.2-1-0.6-1.4-1c-0.4-0.4-0.7-0.9-0.9-1.5c-0.2-0.6-0.3-1.2-0.3-1.8
					c0-0.4,0-0.8,0.1-1.2c0.1-0.4,0.2-0.8,0.4-1.1c0.2-0.4,0.4-0.7,0.6-1c0.2-0.3,0.5-0.6,0.9-0.8c0.3-0.2,0.7-0.4,1.1-0.5
					c0.4-0.1,0.9-0.2,1.4-0.2c0.5,0,1,0.1,1.4,0.2c0.4,0.1,0.8,0.3,1.2,0.6l-0.1-0.7h0.7v3h-0.5c0-0.4-0.1-0.8-0.3-1.1
					c-0.1-0.3-0.3-0.6-0.6-0.8c-0.2-0.2-0.5-0.4-0.8-0.5C274.7,32.9,274.4,32.8,274,32.8z"/>
				<path fill="#616161" d="M281.4,34.9c0.5,0,0.9,0.1,1.3,0.3c0.4,0.2,0.7,0.4,1,0.7c0.3,0.3,0.5,0.6,0.7,1
					c0.2,0.4,0.3,0.8,0.3,1.3c0,0.5-0.1,1-0.3,1.4c-0.2,0.4-0.4,0.8-0.7,1.1c-0.3,0.3-0.6,0.6-1,0.8c-0.4,0.2-0.8,0.3-1.3,0.3
					c-0.5,0-0.9-0.1-1.3-0.2c-0.4-0.2-0.7-0.4-1-0.7c-0.3-0.3-0.5-0.6-0.7-1c-0.2-0.4-0.3-0.8-0.3-1.3c0-0.5,0.1-1,0.3-1.4
					c0.2-0.4,0.4-0.8,0.7-1.1c0.3-0.3,0.6-0.6,1-0.8C280.6,35,281,34.9,281.4,34.9z M281.4,35.4c-0.3,0-0.6,0.1-0.9,0.2
					c-0.2,0.2-0.4,0.4-0.6,0.6c-0.2,0.3-0.3,0.5-0.3,0.9c-0.1,0.3-0.1,0.7-0.1,1c0,0.4,0,0.8,0.1,1.2c0.1,0.4,0.2,0.7,0.4,1
					c0.2,0.3,0.4,0.5,0.6,0.7c0.3,0.2,0.6,0.3,0.9,0.3c0.3,0,0.6-0.1,0.9-0.2c0.2-0.2,0.4-0.4,0.6-0.6c0.1-0.3,0.3-0.5,0.3-0.9
					c0.1-0.3,0.1-0.7,0.1-1c0-0.4,0-0.8-0.1-1.2c-0.1-0.4-0.2-0.7-0.3-1c-0.2-0.3-0.4-0.5-0.6-0.7C282.1,35.5,281.8,35.4,281.4,35.4
					z"/>
				<path fill="#616161" d="M290.3,36.1c-0.1-0.2-0.1-0.3-0.3-0.4c-0.1-0.1-0.2-0.2-0.4-0.2c-0.1-0.1-0.3-0.1-0.4-0.1
					c-0.1,0-0.2,0-0.3,0c-0.3,0-0.6,0.1-0.8,0.2c-0.3,0.1-0.5,0.3-0.7,0.5c-0.2,0.2-0.3,0.5-0.4,0.9c-0.1,0.3-0.2,0.7-0.2,1.2
					c0,0.4,0.1,0.8,0.2,1.2c0.1,0.4,0.3,0.7,0.5,0.9c0.2,0.3,0.4,0.5,0.7,0.6c0.3,0.1,0.6,0.2,0.9,0.2c0.2,0,0.4,0,0.6-0.1
					c0.2-0.1,0.4-0.1,0.6-0.2c0.2-0.1,0.3-0.2,0.5-0.4c0.2-0.1,0.3-0.3,0.4-0.4l0.3,0.3c-0.2,0.3-0.4,0.5-0.6,0.7
					c-0.2,0.2-0.5,0.4-0.7,0.5c-0.2,0.1-0.5,0.2-0.7,0.3c-0.2,0.1-0.5,0.1-0.7,0.1c-0.4,0-0.9-0.1-1.2-0.2c-0.4-0.2-0.7-0.4-1-0.7
					c-0.3-0.3-0.5-0.6-0.7-1.1c-0.2-0.4-0.3-0.9-0.3-1.4c0-0.3,0-0.6,0.1-0.9c0.1-0.3,0.2-0.6,0.3-0.8c0.1-0.3,0.3-0.5,0.5-0.7
					c0.2-0.2,0.4-0.4,0.7-0.6c0.3-0.2,0.5-0.3,0.8-0.4c0.3-0.1,0.6-0.1,0.9-0.1c0.4,0,0.7,0,1,0.1c0.3,0.1,0.6,0.2,0.8,0.4
					c0.2,0.1,0.4,0.3,0.5,0.5c0.1,0.2,0.2,0.4,0.2,0.6c0,0.2-0.1,0.3-0.2,0.5c-0.1,0.1-0.3,0.2-0.4,0.2c-0.1,0-0.2,0-0.3-0.1
					c-0.1,0-0.1-0.1-0.2-0.1c0-0.1-0.1-0.1-0.1-0.2c0-0.1,0-0.1,0-0.2c0-0.1,0-0.2,0-0.3C290.2,36.2,290.3,36.2,290.3,36.1z"/>
				<path fill="#616161" d="M293,36.7c0-0.1,0-0.3,0-0.4c0-0.1,0-0.3,0-0.5l-0.9,0.1v-0.5c0.3,0,0.5,0,0.7,0c0.2,0,0.3,0,0.5-0.1
					c0.1,0,0.2-0.1,0.3-0.1c0.1,0,0.1-0.1,0.2-0.1h0.4v5.2c0,0.2,0,0.3,0,0.5c0,0.1,0,0.3,0,0.4l0.8,0v0.5h-2.7v-0.4
					c0.2,0,0.4,0,0.5-0.1c0.1-0.1,0.2-0.2,0.2-0.3c0-0.1,0.1-0.3,0.1-0.5c0-0.2,0-0.4,0-0.6V36.7z M294.3,32.9c0,0.1,0,0.2-0.1,0.3
					c0,0.1-0.1,0.2-0.2,0.2c-0.1,0.1-0.1,0.1-0.2,0.2c-0.1,0-0.2,0.1-0.3,0.1c-0.1,0-0.2,0-0.3-0.1c-0.1,0-0.2-0.1-0.2-0.2
					c-0.1-0.1-0.1-0.2-0.2-0.2c0-0.1-0.1-0.2-0.1-0.3c0-0.1,0-0.2,0.1-0.3c0-0.1,0.1-0.2,0.2-0.3c0.1-0.1,0.1-0.1,0.2-0.2
					c0.1,0,0.2-0.1,0.3-0.1c0.1,0,0.2,0,0.3,0.1c0.1,0,0.2,0.1,0.2,0.2c0.1,0.1,0.1,0.2,0.1,0.3C294.2,32.7,294.3,32.8,294.3,32.9z"
					/>
				<path fill="#616161" d="M296.4,36.7c0-0.1,0-0.3,0-0.4c0-0.1,0-0.3,0-0.4l-0.9,0.1v-0.5c0.3,0,0.5,0,0.7,0c0.2,0,0.3,0,0.4-0.1
					c0.1,0,0.2-0.1,0.3-0.1c0.1,0,0.1-0.1,0.2-0.1h0.4c0,0.1,0,0.2,0,0.3c0,0.1,0,0.3,0,0.5c0.1-0.1,0.3-0.2,0.5-0.3
					c0.2-0.1,0.3-0.2,0.5-0.3c0.2-0.1,0.4-0.1,0.6-0.2c0.2,0,0.4-0.1,0.6-0.1c0.8,0,1.3,0.2,1.7,0.7c0.3,0.5,0.5,1.2,0.5,2.2v2.4
					c0,0.2,0,0.3,0,0.5c0,0.1,0,0.3,0,0.4l0.8,0v0.5h-2.7v-0.4c0.2,0,0.4,0,0.5-0.1c0.1-0.1,0.2-0.2,0.2-0.3c0-0.1,0.1-0.3,0.1-0.5
					c0-0.2,0-0.4,0-0.6v-1.8c0-0.7-0.1-1.3-0.4-1.7c-0.2-0.4-0.6-0.6-1.1-0.6c-0.2,0-0.3,0-0.5,0.1c-0.2,0-0.3,0.1-0.5,0.2
					c-0.1,0.1-0.3,0.2-0.4,0.3c-0.1,0.1-0.2,0.2-0.3,0.3c0,0.1,0,0.2,0,0.2c0,0.1,0,0.2,0,0.3l0,3.3c0,0.2,0,0.3,0,0.5
					c0,0.1,0,0.3,0,0.4l0.8,0v0.5h-2.7v-0.4c0.2,0,0.4,0,0.5-0.1c0.1-0.1,0.2-0.2,0.2-0.3c0-0.1,0.1-0.3,0.1-0.5c0-0.2,0-0.4,0-0.6
					L296.4,36.7z"/>
				<path fill="#616161" d="M303.6,36.5c0-0.2,0.1-0.4,0.2-0.6c0.1-0.2,0.3-0.4,0.5-0.5c0.2-0.1,0.5-0.3,0.8-0.3
					c0.3-0.1,0.7-0.1,1-0.1c0.7,0,1.3,0.2,1.6,0.6c0.3,0.4,0.5,1,0.5,1.8l0,2.9c0,0.1,0,0.3,0,0.4c0,0.1,0,0.3,0,0.5l0.9-0.1v0.5
					h-1.9c0-0.1,0-0.3-0.1-0.4c0-0.1,0-0.2,0-0.3c-0.3,0.3-0.6,0.5-1,0.7c-0.3,0.2-0.7,0.3-1.1,0.3c-0.3,0-0.6,0-0.9-0.1
					c-0.2-0.1-0.4-0.2-0.6-0.3c-0.2-0.1-0.3-0.3-0.4-0.5c-0.1-0.2-0.1-0.4-0.1-0.6c0-0.3,0.1-0.5,0.2-0.7c0.1-0.2,0.3-0.4,0.5-0.6
					c0.2-0.2,0.4-0.3,0.7-0.4c0.3-0.1,0.5-0.2,0.8-0.3c0.3-0.1,0.6-0.1,0.9-0.2c0.3,0,0.6-0.1,0.9,0v-0.8c0-0.2,0-0.4,0-0.7
					c0-0.2-0.1-0.4-0.2-0.6c-0.1-0.2-0.2-0.3-0.4-0.4c-0.2-0.1-0.4-0.2-0.6-0.2c-0.1,0-0.3,0-0.4,0c-0.1,0-0.3,0.1-0.4,0.1
					s-0.2,0.1-0.3,0.2c-0.1,0.1-0.2,0.2-0.2,0.3c0.1,0.1,0.1,0.2,0.1,0.2c0,0.1,0,0.2,0,0.3c0,0.1,0,0.1,0,0.2
					c0,0.1-0.1,0.1-0.1,0.2c0,0.1-0.1,0.1-0.2,0.1c-0.1,0-0.2,0.1-0.3,0.1c-0.2,0-0.3-0.1-0.4-0.2C303.6,36.8,303.6,36.6,303.6,36.5
					z M307.1,38.4c-0.2,0-0.4,0-0.6,0.1c-0.2,0-0.4,0.1-0.6,0.1c-0.2,0.1-0.4,0.1-0.6,0.2c-0.2,0.1-0.3,0.2-0.5,0.3
					c-0.1,0.1-0.2,0.3-0.3,0.4c-0.1,0.2-0.1,0.3-0.1,0.5c0,0.2,0,0.3,0.1,0.4c0.1,0.1,0.1,0.2,0.2,0.3c0.1,0.1,0.2,0.1,0.3,0.2
					c0.1,0,0.2,0.1,0.4,0.1c0.2,0,0.3,0,0.5-0.1c0.2,0,0.3-0.1,0.4-0.1c0.1-0.1,0.3-0.1,0.4-0.2c0.1-0.1,0.3-0.2,0.4-0.3V38.4z"/>
				<path fill="#616161" d="M313.5,35.6c-0.2,0-0.3,0-0.5,0.1c-0.2,0.1-0.3,0.2-0.5,0.3c-0.2,0.1-0.3,0.3-0.5,0.5
					c-0.1,0.2-0.3,0.4-0.4,0.6l0,3.2c0,0.2,0,0.3,0,0.5c0,0.1,0,0.3,0,0.4l0.8,0v0.5h-2.7v-0.4c0.2,0,0.4,0,0.5-0.1
					c0.1-0.1,0.2-0.2,0.2-0.3c0-0.1,0.1-0.3,0.1-0.5c0-0.2,0-0.4,0-0.6v-3c0-0.1,0-0.3,0-0.4c0-0.1,0-0.3,0-0.4l-0.9,0v-0.5h0.4
					c0.2,0,0.3,0,0.5,0c0.1,0,0.2,0,0.3-0.1c0.1,0,0.2-0.1,0.2-0.1c0.1,0,0.1-0.1,0.2-0.1h0.4c0,0.1,0,0.3,0,0.5c0,0.2,0,0.5,0,0.8
					c0.1-0.2,0.2-0.3,0.4-0.5c0.2-0.2,0.3-0.3,0.5-0.4c0.2-0.1,0.4-0.2,0.6-0.3c0.2-0.1,0.4-0.1,0.7-0.1c0.1,0,0.2,0,0.3,0
					c0.1,0,0.2,0.1,0.3,0.1c0.1,0.1,0.1,0.2,0.2,0.3c0.1,0.1,0.1,0.2,0.1,0.4c0,0.1,0,0.1,0,0.2c0,0.1-0.1,0.1-0.1,0.2
					c-0.1,0.1-0.1,0.1-0.2,0.2c-0.1,0-0.2,0.1-0.3,0.1c-0.1,0-0.2,0-0.3-0.1c-0.1,0-0.1-0.1-0.2-0.2c-0.1-0.1-0.1-0.1-0.1-0.2
					C313.5,35.8,313.5,35.7,313.5,35.6z"/>
			</g>
		</g>
		<g>
			<g>
				<path fill="#FFFFFF" d="M227.9,59c-0.2,0.1-0.4,0.2-0.6,0.3c-0.2,0.1-0.5,0.1-0.7,0.1c-0.9,0-1.6-0.3-2.3-0.9
					c-0.6-0.6-0.9-1.4-0.9-2.5c0-1.2,0.4-2.1,1.1-2.7c0.7-0.6,1.6-0.9,2.5-0.9c1.1,0,1.9,0.4,2.6,1.2c0.7,0.8,1,2,1,3.5
					c0,1.9-0.5,3.4-1.4,4.5c-0.9,1.1-2.1,1.7-3.5,1.7c-0.7,0-1.2-0.1-1.6-0.4c-0.4-0.2-0.5-0.5-0.5-0.9c0-0.2,0.1-0.4,0.3-0.6
					c0.2-0.2,0.4-0.3,0.6-0.3c0.2,0,0.4,0,0.5,0.1c0.1,0.1,0.3,0.3,0.5,0.5c0.2,0.3,0.5,0.5,0.9,0.5c0.5,0,0.8-0.3,1.1-0.8
					C227.6,61.2,227.8,60.3,227.9,59z M225.9,56c0,0.9,0.1,1.6,0.3,1.9c0.2,0.4,0.4,0.6,0.8,0.6c0.4,0,0.6-0.2,0.8-0.5
					c0.2-0.3,0.3-0.9,0.3-1.7c0-1.2-0.1-2-0.3-2.4c-0.2-0.4-0.5-0.6-0.8-0.6c-0.2,0-0.4,0.1-0.6,0.2c-0.2,0.1-0.3,0.4-0.4,0.7
					C225.9,54.5,225.9,55.1,225.9,56z"/>
				<path fill="#FFFFFF" d="M231.7,57.8c0-1.8,0.3-3.1,1-4c0.7-0.9,1.6-1.4,2.7-1.4c1.1,0,2,0.5,2.7,1.4c0.7,0.9,1.1,2.2,1.1,4
					c0,2-0.3,3.4-1,4.3c-0.7,0.9-1.6,1.4-2.7,1.4c-0.8,0-1.5-0.2-2.1-0.7c-0.6-0.5-1-1.1-1.3-1.9C231.8,60,231.7,59,231.7,57.8z
					 M234.3,57.8c0,1.7,0.1,2.9,0.2,3.6c0.1,0.7,0.4,1.1,0.9,1.1c0.4,0,0.7-0.3,0.8-0.9c0.1-0.6,0.2-1.8,0.2-3.7
					c0-1.8-0.1-3-0.2-3.7c-0.2-0.6-0.4-0.9-0.9-0.9c-0.4,0-0.7,0.3-0.8,0.9C234.4,54.8,234.3,56,234.3,57.8z"/>
				<path fill="#FFFFFF" d="M241,55.3c0-0.9,0.2-1.6,0.7-2.1c0.5-0.5,1.1-0.8,1.9-0.8c0.9,0,1.6,0.3,2,0.8c0.4,0.5,0.7,1.2,0.7,2
					c0,0.8-0.2,1.5-0.7,2c-0.5,0.5-1.1,0.8-1.8,0.8c-0.9,0-1.6-0.3-2-0.8C241.2,56.7,241,56,241,55.3z M242.9,55.2
					c0,1,0,1.6,0.1,1.9c0.1,0.3,0.3,0.4,0.5,0.4c0.2,0,0.4-0.2,0.5-0.5c0.1-0.3,0.2-0.8,0.2-1.5c0-1,0-1.6-0.1-2
					c-0.1-0.4-0.3-0.6-0.5-0.6c-0.2,0-0.4,0.1-0.5,0.4C243,53.7,242.9,54.3,242.9,55.2z M244.4,63.2l5.4-10.6h1.1l-5.4,10.6H244.4z
					 M248.9,60.7c0-0.9,0.2-1.6,0.7-2.1c0.5-0.5,1.1-0.8,1.9-0.8c0.9,0,1.6,0.3,2,0.8c0.4,0.5,0.7,1.2,0.7,2c0,0.8-0.2,1.5-0.7,2
					c-0.5,0.5-1.1,0.8-1.8,0.8c-0.9,0-1.6-0.3-2-0.8C249.2,62.1,248.9,61.4,248.9,60.7z M250.9,60.6c0,1,0.1,1.6,0.2,1.9
					c0.1,0.3,0.3,0.4,0.5,0.4c0.2,0,0.4-0.2,0.5-0.5c0.1-0.3,0.2-0.8,0.2-1.5c0-1,0-1.6-0.1-2c-0.1-0.4-0.3-0.6-0.5-0.6
					c-0.2,0-0.4,0.1-0.5,0.4C251,59,250.9,59.6,250.9,60.6z"/>
			</g>
		</g>
		<g>
			<circle fill="none" stroke="#616161" stroke-miterlimit="10" cx="172" cy="50.6" r="22.2"/>
			<path fill="#616161" d="M174.9,38.9c0.1-0.2,0.1-0.5,0.1-0.8c0-2.1-1.7-3.7-3.7-3.7c-2.1,0-3.7,1.7-3.7,3.7c0,0.2,0,0.5,0.1,0.8
				c-5,0.5-8.6,2-8.7,3.6h24.6C183.6,40.9,179.9,39.5,174.9,38.9 M172.6,38.8H170c-0.1-0.2-0.2-0.4-0.2-0.6c0-0.8,0.6-1.4,1.4-1.4
				c0.8,0,1.4,0.6,1.4,1.4C172.7,38.4,172.6,38.6,172.6,38.8"/>
			<path fill="#616161" d="M187.2,46h-3.6v-1.6H159V46h-3.6c-1.1,0-1.9,0.8-1.9,1.9c0,1.1,0.8,1.9,1.9,1.9h3.6V61
				c0,1.7,1.4,3.1,3.1,3.1h18.3c1.7,0,3.1-1.4,3.1-3.1V49.8h3.6c1.1,0,1.9-0.8,1.9-1.9C189.1,46.8,188.2,46,187.2,46 M163.8,60.4
				c0,0.6-0.5,1.1-1.1,1.1c-0.6,0-1.1-0.5-1.1-1.1v-13c0-0.6,0.5-1.1,1.1-1.1c0.6,0,1.1,0.5,1.1,1.1V60.4z"/>
		</g>
		<rect x="238.5" y="101.7" fill="#DBDCDE" width="160.7" height="21.1"/>
		<rect x="201.6" y="101.7" fill="#AC603E" width="142" height="21.1"/>
		<g>
			<g>
				<path fill="#AC603E" d="M204.8,94.6c0,0.3,0,0.5,0,0.7c0,0.2,0,0.4-0.1,0.5l3,0c0.3,0,0.6-0.1,0.9-0.2c0.3-0.1,0.5-0.3,0.7-0.5
					c0.2-0.2,0.3-0.5,0.4-0.8c0.1-0.3,0.2-0.7,0.2-1.2h0.5l-0.3,3.3h-7.9l0-0.5c0.3,0,0.5-0.1,0.7-0.2c0.2-0.1,0.3-0.2,0.3-0.4
					c0.1-0.2,0.1-0.4,0.1-0.6c0-0.2,0-0.5,0-0.8l0.4-6.9c0-0.2,0-0.4,0-0.6c0-0.2,0-0.4,0.1-0.5l-1.1,0.1v-0.7h3.5l0,0.5
					c-0.3,0-0.5,0.1-0.7,0.2c-0.2,0.1-0.3,0.2-0.4,0.4c-0.1,0.2-0.1,0.4-0.1,0.6c0,0.2,0,0.5,0,0.8L204.8,94.6z"/>
				<path fill="#AC603E" d="M214.3,90c0,0.3,0,0.7-0.1,1.1c-0.1,0.4-0.1,0.9-0.2,1.3c-0.1,0.5-0.1,0.9-0.2,1.4
					c-0.1,0.5-0.1,0.9-0.1,1.4c0,0.2,0,0.4,0.1,0.5c0.1,0.1,0.2,0.2,0.4,0.2c0.1,0,0.2,0,0.3-0.1c0.1-0.1,0.2-0.1,0.3-0.3
					c0.1-0.1,0.2-0.3,0.3-0.5c0.1-0.2,0.2-0.4,0.3-0.7l0.5,0.1c0,0.2-0.1,0.5-0.2,0.7c-0.1,0.3-0.2,0.5-0.4,0.7
					c-0.2,0.2-0.4,0.4-0.6,0.6c-0.2,0.2-0.5,0.2-0.8,0.2c-1,0-1.4-0.5-1.4-1.5c0-0.5,0-0.9,0.1-1.4c0.1-0.4,0.1-0.9,0.2-1.3
					c0.1-0.4,0.1-0.9,0.2-1.3c0.1-0.4,0.1-0.9,0.1-1.3c0-0.1,0-0.1,0-0.2c0-0.1,0-0.2-0.1-0.2c0-0.1-0.1-0.1-0.1-0.2
					c-0.1,0-0.1-0.1-0.2-0.1c-0.1,0-0.2,0-0.3,0.1c-0.1,0.1-0.2,0.1-0.3,0.3c-0.1,0.1-0.2,0.3-0.3,0.5c-0.1,0.2-0.2,0.4-0.3,0.7
					l-0.4-0.1c0-0.2,0.1-0.4,0.2-0.7c0.1-0.3,0.2-0.5,0.4-0.7c0.2-0.2,0.4-0.4,0.6-0.6c0.2-0.2,0.5-0.2,0.8-0.2c0.2,0,0.4,0,0.6,0.1
					c0.2,0.1,0.3,0.2,0.4,0.3c0.1,0.1,0.2,0.3,0.3,0.5S214.3,89.7,214.3,90z M214.7,85.8c0,0.1,0,0.3-0.1,0.4c0,0.1-0.1,0.2-0.2,0.3
					c-0.1,0.1-0.2,0.1-0.3,0.2c-0.1,0-0.2,0.1-0.3,0.1c-0.1,0-0.2,0-0.3-0.1c-0.1,0-0.2-0.1-0.3-0.2c-0.1-0.1-0.1-0.2-0.2-0.3
					c0-0.1-0.1-0.2-0.1-0.4c0-0.1,0-0.3,0.1-0.4c0-0.1,0.1-0.2,0.2-0.3c0.1-0.1,0.2-0.1,0.3-0.2c0.1,0,0.2-0.1,0.3-0.1
					c0.3,0,0.5,0.1,0.6,0.2C214.6,85.3,214.7,85.5,214.7,85.8z"/>
				<path fill="#AC603E" d="M218.8,87.1c-0.1,0.7-0.1,1.4-0.2,2.2c-0.1,0.8-0.2,1.6-0.2,2.4h0c0.1-0.5,0.3-1,0.5-1.3
					c0.2-0.4,0.3-0.7,0.5-0.9c0.2-0.3,0.4-0.5,0.5-0.6c0.2-0.2,0.4-0.3,0.6-0.3c0.2-0.1,0.4-0.1,0.5-0.2c0.2,0,0.3,0,0.5,0
					c0.4,0,0.7,0.1,0.9,0.2c0.3,0.2,0.5,0.4,0.6,0.6c0.2,0.3,0.3,0.6,0.3,0.9c0.1,0.4,0.1,0.7,0.1,1.1c0,0.7-0.1,1.4-0.2,2.1
					c-0.2,0.7-0.4,1.2-0.8,1.7c-0.4,0.5-0.8,0.9-1.4,1.2c-0.6,0.3-1.2,0.4-2,0.4c-0.1,0-0.3,0-0.5,0c-0.2,0-0.4,0-0.5-0.1
					c-0.2,0-0.4-0.1-0.6-0.1c-0.2,0-0.4-0.1-0.5-0.2c0.3-4,0.5-7.3,0.7-10.1c0-0.1,0-0.2,0-0.3s0-0.1,0-0.2c0-0.1,0-0.1,0-0.1
					c0,0,0-0.1,0-0.2l-1.1,0.1l0.1-0.6c0.3,0,0.6,0,0.9,0c0.2,0,0.4-0.1,0.6-0.1c0.2,0,0.3-0.1,0.4-0.1c0.1-0.1,0.2-0.1,0.2-0.2h0.5
					c0,0.2-0.1,0.5-0.1,0.7c0,0.2-0.1,0.5-0.1,0.7c0,0.2-0.1,0.5-0.1,0.7C218.8,86.7,218.8,86.9,218.8,87.1z M218.1,95.7
					c0.1,0.1,0.3,0.2,0.5,0.3c0.2,0.1,0.4,0.1,0.7,0.1c0.4,0,0.7-0.1,1-0.2c0.3-0.1,0.5-0.3,0.7-0.6c0.2-0.2,0.4-0.5,0.5-0.8
					c0.1-0.3,0.2-0.6,0.3-1c0.1-0.3,0.1-0.7,0.2-1c0-0.3,0.1-0.7,0.1-1c0-0.8-0.1-1.4-0.3-1.8c-0.2-0.4-0.5-0.7-0.8-0.7
					c-0.3,0-0.5,0.1-0.7,0.3c-0.2,0.2-0.5,0.5-0.7,0.8c-0.2,0.3-0.4,0.7-0.6,1.2c-0.2,0.5-0.3,0.9-0.5,1.4c-0.1,0.5-0.2,1-0.3,1.5
					C218.1,94.8,218.1,95.3,218.1,95.7z"/>
				<path fill="#AC603E" d="M230,89.3C230,89.3,229.9,89.3,230,89.3c-0.1,0-0.1,0-0.2,0c-0.2,0-0.5,0.1-0.7,0.3
					c-0.2,0.2-0.4,0.5-0.6,0.8c-0.2,0.3-0.4,0.7-0.6,1.2c-0.2,0.4-0.3,0.9-0.4,1.4c-0.1,0.5-0.2,1-0.3,1.4c-0.1,0.5-0.1,0.9-0.1,1.3
					c0,0.1,0,0.1,0,0.2c0,0.1,0,0.1,0,0.2c0,0,0,0.1,0,0.1c0,0,0,0.1,0,0.2h-1.3c0-0.1,0-0.2,0-0.2c0-0.1,0-0.3,0-0.5
					c0-0.2,0-0.4,0-0.6c0-0.3,0-0.6,0.1-0.9c0-0.4,0.1-0.8,0.1-1.4c0-0.4,0.1-0.8,0.1-1.1c0-0.3,0.1-0.5,0.1-0.7
					c0-0.2,0-0.3,0.1-0.5c0-0.1,0-0.2,0-0.3c0-0.1,0-0.2,0-0.2c0-0.1,0-0.1,0-0.2c0-0.1,0-0.2,0-0.3c0-0.1,0-0.2-0.1-0.2
					c0-0.1-0.1-0.1-0.1-0.2c-0.1,0-0.1-0.1-0.2-0.1c-0.1,0-0.2,0-0.3,0.1c-0.1,0.1-0.2,0.1-0.3,0.3c-0.1,0.1-0.2,0.3-0.3,0.5
					c-0.1,0.2-0.2,0.4-0.3,0.7l-0.4-0.1c0-0.2,0.1-0.4,0.2-0.7c0.1-0.3,0.2-0.5,0.4-0.7c0.2-0.2,0.4-0.4,0.6-0.6
					c0.2-0.2,0.5-0.2,0.8-0.2c0.2,0,0.4,0,0.6,0.1c0.2,0.1,0.3,0.2,0.4,0.3c0.1,0.1,0.2,0.3,0.2,0.5c0,0.2,0.1,0.4,0.1,0.6
					c0,0.3,0,0.6-0.1,0.9c0,0.3-0.1,0.7-0.2,1h0c0.2-0.7,0.5-1.3,0.7-1.7c0.2-0.5,0.5-0.8,0.7-1.1c0.3-0.3,0.5-0.4,0.8-0.6
					c0.3-0.1,0.5-0.2,0.8-0.2c0.2,0,0.3,0,0.4,0.1c0.1,0,0.3,0.1,0.4,0.2c0.1,0.1,0.2,0.2,0.2,0.3c0.1,0.1,0.1,0.2,0.1,0.4
					c0,0.1,0,0.2-0.1,0.3c0,0.1-0.1,0.2-0.1,0.2c-0.1,0.1-0.1,0.1-0.2,0.2c-0.1,0-0.2,0.1-0.3,0.1c-0.2,0-0.4-0.1-0.5-0.2
					C230.1,89.7,230,89.6,230,89.3z"/>
				<path fill="#AC603E" d="M235.1,96.7c-0.5,0-1-0.1-1.4-0.3c-0.4-0.2-0.7-0.4-1-0.8c-0.3-0.3-0.4-0.7-0.6-1.1
					c-0.1-0.4-0.2-0.9-0.2-1.4c0-0.6,0.1-1.3,0.3-1.8c0.2-0.6,0.4-1.1,0.8-1.5c0.3-0.4,0.8-0.8,1.2-1c0.5-0.3,1-0.4,1.7-0.4
					c0.4,0,0.8,0.1,1.2,0.2c0.4,0.2,0.7,0.4,1,0.7c0.3,0.3,0.5,0.7,0.6,1.1c0.2,0.4,0.2,0.9,0.2,1.5c0,0.6-0.1,1.3-0.3,1.8
					c-0.2,0.6-0.4,1.1-0.8,1.5c-0.3,0.4-0.7,0.8-1.2,1.1C236.3,96.5,235.8,96.7,235.1,96.7z M237.6,92.1c0-0.2,0-0.5,0-0.8
					c0-0.3-0.1-0.5-0.1-0.7c-0.1-0.2-0.1-0.5-0.2-0.7c-0.1-0.2-0.2-0.4-0.4-0.6c-0.1-0.2-0.3-0.3-0.5-0.4c-0.2-0.1-0.4-0.1-0.7-0.1
					c-0.4,0-0.7,0.1-1,0.3c-0.3,0.2-0.5,0.5-0.7,0.8c-0.2,0.3-0.3,0.8-0.4,1.2c-0.1,0.5-0.2,1-0.2,1.5c0,0.2,0,0.5,0,0.8
					c0,0.3,0.1,0.5,0.1,0.8c0.1,0.2,0.1,0.5,0.2,0.7c0.1,0.2,0.2,0.4,0.3,0.6c0.1,0.2,0.3,0.3,0.5,0.4c0.2,0.1,0.4,0.1,0.6,0.1
					c0.3,0,0.5-0.1,0.7-0.2c0.2-0.1,0.4-0.3,0.6-0.5c0.2-0.2,0.3-0.4,0.4-0.7c0.1-0.3,0.2-0.5,0.3-0.8c0.1-0.3,0.1-0.6,0.2-0.8
					C237.6,92.8,237.6,92.5,237.6,92.1z"/>
				<path fill="#616161" d="M250.6,92.8l-5.8,2.6v-0.8l4.9-2.2l-4.9-2.2v-0.8l5.8,2.5V92.8z"/>
				<path fill="#616161" d="M261.4,96c0,0,0.1,0.1,0.1,0.1c0,0,0.1,0,0.1,0.1c0.1,0,0.1,0,0.1,0c0,0,0.1,0,0.1,0
					c0.1,0,0.2,0,0.3-0.1s0.2-0.1,0.2-0.3c0.1-0.1,0.1-0.3,0.1-0.5c0-0.2,0-0.4,0-0.7v-6.8l-1.3,0.1v-0.6h3.5v0.4
					c-0.2,0-0.4,0-0.5,0.1c-0.1,0.1-0.2,0.2-0.3,0.3c-0.1,0.1-0.1,0.3-0.1,0.4c0,0.2,0,0.3,0,0.5v4.2c0,0.6,0,1.1-0.1,1.6
					c-0.1,0.4-0.2,0.8-0.4,1.1c-0.2,0.3-0.4,0.5-0.7,0.6c-0.3,0.1-0.6,0.2-1,0.2c-0.2,0-0.4,0-0.5-0.1c-0.2,0-0.3-0.1-0.4-0.2
					c-0.1-0.1-0.2-0.2-0.3-0.3c-0.1-0.1-0.1-0.2-0.1-0.4c0-0.1,0-0.2,0-0.2c0-0.1,0.1-0.1,0.1-0.2c0-0.1,0.1-0.1,0.2-0.1
					c0.1,0,0.1-0.1,0.2-0.1c0,0,0.1,0,0.2,0c0.1,0,0.2,0,0.2,0.1s0.1,0.1,0.2,0.1c0,0.1,0.1,0.1,0.1,0.2c0,0.1,0,0.1,0,0.2
					c0,0,0,0.1,0,0.1C261.4,95.9,261.4,95.9,261.4,96z"/>
				<path fill="#616161" d="M270.3,91.7c0-0.2,0-0.4,0-0.5s0-0.3,0.1-0.4l-0.9,0v-0.5h0.4c0.2,0,0.3,0,0.5,0c0.1,0,0.2,0,0.3-0.1
					c0.1,0,0.2-0.1,0.2-0.1c0.1,0,0.1-0.1,0.2-0.1h0.4l0,4.9c0,0.1,0,0.2,0,0.3c0,0.1,0,0.2,0,0.3c0,0.1,0,0.2,0,0.3
					c0,0.1,0,0.2,0,0.3l0.9-0.1v0.5h-1.9c0-0.1,0-0.3-0.1-0.4c0-0.1,0-0.2,0-0.4c-0.1,0.1-0.3,0.3-0.5,0.4c-0.2,0.1-0.3,0.2-0.5,0.3
					c-0.2,0.1-0.4,0.2-0.6,0.2c-0.2,0.1-0.4,0.1-0.6,0.1c-0.4,0-0.7,0-0.9-0.1c-0.3-0.1-0.5-0.3-0.7-0.5c-0.2-0.2-0.3-0.5-0.4-0.9
					c-0.1-0.4-0.1-0.8-0.1-1.3v-2.3c0-0.1,0-0.3,0-0.4c0-0.1,0-0.3,0-0.4l-0.9,0v-0.5h0.4c0.2,0,0.3,0,0.5,0c0.1,0,0.2,0,0.3-0.1
					c0.1,0,0.2-0.1,0.2-0.1c0.1,0,0.1-0.1,0.2-0.1h0.4v4c0,0.4,0,0.7,0.1,1c0.1,0.3,0.1,0.5,0.2,0.7c0.1,0.2,0.3,0.3,0.4,0.4
					c0.2,0.1,0.4,0.1,0.7,0.1c0.2,0,0.3,0,0.5-0.1c0.2-0.1,0.3-0.1,0.5-0.2c0.1-0.1,0.3-0.2,0.4-0.3c0.1-0.1,0.2-0.2,0.3-0.4v-0.5
					V91.7z"/>
				<path fill="#616161" d="M273.5,91.3c0-0.2,0.1-0.4,0.2-0.6c0.1-0.2,0.3-0.4,0.5-0.5c0.2-0.1,0.5-0.3,0.8-0.3
					c0.3-0.1,0.7-0.1,1-0.1c0.7,0,1.3,0.2,1.6,0.6c0.3,0.4,0.5,1,0.5,1.8l0,2.9c0,0.1,0,0.3,0,0.4c0,0.1,0,0.3,0,0.5l0.9-0.1v0.5
					h-1.9c0-0.1,0-0.3-0.1-0.4c0-0.1,0-0.2,0-0.3c-0.3,0.3-0.6,0.5-1,0.7c-0.3,0.2-0.7,0.3-1.1,0.3c-0.3,0-0.6,0-0.9-0.1
					c-0.2-0.1-0.4-0.2-0.6-0.3c-0.2-0.1-0.3-0.3-0.4-0.5c-0.1-0.2-0.1-0.4-0.1-0.6c0-0.3,0.1-0.5,0.2-0.7c0.1-0.2,0.3-0.4,0.5-0.6
					c0.2-0.2,0.4-0.3,0.7-0.4c0.3-0.1,0.5-0.2,0.8-0.3c0.3-0.1,0.6-0.1,0.9-0.2c0.3,0,0.6-0.1,0.9,0v-0.8c0-0.2,0-0.4,0-0.7
					c0-0.2-0.1-0.4-0.2-0.6c-0.1-0.2-0.2-0.3-0.4-0.4c-0.2-0.1-0.4-0.2-0.6-0.2c-0.1,0-0.3,0-0.4,0c-0.1,0-0.3,0.1-0.4,0.1
					c-0.1,0.1-0.2,0.1-0.3,0.2c-0.1,0.1-0.2,0.2-0.2,0.3c0.1,0.1,0.1,0.2,0.1,0.2c0,0.1,0,0.2,0,0.3c0,0.1,0,0.1,0,0.2
					c0,0.1-0.1,0.1-0.1,0.2c0,0.1-0.1,0.1-0.2,0.1c-0.1,0-0.2,0.1-0.3,0.1c-0.2,0-0.3-0.1-0.4-0.2C273.6,91.7,273.5,91.5,273.5,91.3
					z M277.1,93.3c-0.2,0-0.4,0-0.6,0.1c-0.2,0-0.4,0.1-0.6,0.1c-0.2,0.1-0.4,0.1-0.6,0.2s-0.3,0.2-0.5,0.3
					c-0.1,0.1-0.2,0.3-0.3,0.4c-0.1,0.2-0.1,0.3-0.1,0.5c0,0.2,0,0.3,0.1,0.4c0.1,0.1,0.1,0.2,0.2,0.3c0.1,0.1,0.2,0.1,0.3,0.2
					c0.1,0,0.2,0.1,0.4,0.1c0.2,0,0.3,0,0.5-0.1c0.2,0,0.3-0.1,0.4-0.1c0.1-0.1,0.3-0.1,0.4-0.2c0.1-0.1,0.3-0.2,0.4-0.3V93.3z"/>
				<path fill="#616161" d="M280.7,91.6c0-0.1,0-0.3,0-0.4c0-0.1,0-0.3,0-0.4l-0.9,0.1v-0.5c0.3,0,0.5,0,0.7,0c0.2,0,0.3,0,0.4-0.1
					c0.1,0,0.2-0.1,0.3-0.1c0.1,0,0.1-0.1,0.2-0.1h0.4c0,0.1,0,0.2,0,0.3c0,0.1,0,0.3,0,0.5c0.1-0.1,0.3-0.2,0.5-0.3
					c0.2-0.1,0.3-0.2,0.5-0.3c0.2-0.1,0.4-0.1,0.6-0.2c0.2,0,0.4-0.1,0.6-0.1c0.8,0,1.3,0.2,1.7,0.7c0.3,0.5,0.5,1.2,0.5,2.2v2.4
					c0,0.2,0,0.3,0,0.5c0,0.1,0,0.3,0,0.4l0.8,0v0.5h-2.7v-0.4c0.2,0,0.4,0,0.5-0.1c0.1-0.1,0.2-0.2,0.2-0.3c0-0.1,0.1-0.3,0.1-0.5
					c0-0.2,0-0.4,0-0.6v-1.8c0-0.7-0.1-1.3-0.4-1.7c-0.2-0.4-0.6-0.6-1.1-0.6c-0.2,0-0.3,0-0.5,0.1c-0.2,0-0.3,0.1-0.5,0.2
					c-0.1,0.1-0.3,0.2-0.4,0.3c-0.1,0.1-0.2,0.2-0.3,0.3c0,0.1,0,0.2,0,0.2c0,0.1,0,0.2,0,0.3l0,3.3c0,0.2,0,0.3,0,0.5
					c0,0.1,0,0.3,0,0.4l0.8,0v0.5H280v-0.4c0.2,0,0.4,0,0.5-0.1c0.1-0.1,0.2-0.2,0.2-0.3c0-0.1,0.1-0.3,0.1-0.5c0-0.2,0-0.4,0-0.6
					L280.7,91.6z"/>
				<path fill="#616161" d="M292.2,96.6h-0.7l-0.1-2.8h0.5c0,0.4,0.1,0.7,0.2,1c0.1,0.3,0.3,0.5,0.5,0.7c0.2,0.2,0.5,0.3,0.8,0.4
					c0.3,0.1,0.6,0.1,1,0.1c0.3,0,0.5,0,0.7-0.1c0.2-0.1,0.4-0.2,0.6-0.3c0.2-0.1,0.3-0.3,0.4-0.5c0.1-0.2,0.1-0.4,0.1-0.7
					c0-0.3-0.1-0.6-0.2-0.8c-0.1-0.2-0.3-0.4-0.6-0.6c-0.2-0.2-0.5-0.3-0.8-0.5c-0.3-0.1-0.6-0.3-0.9-0.4c-0.3-0.1-0.6-0.3-0.9-0.5
					c-0.3-0.2-0.6-0.3-0.8-0.6c-0.2-0.2-0.4-0.5-0.6-0.7c-0.1-0.3-0.2-0.6-0.2-1c0-0.1,0-0.3,0.1-0.5c0-0.2,0.1-0.3,0.2-0.5
					c0.1-0.2,0.2-0.3,0.3-0.5c0.1-0.2,0.3-0.3,0.5-0.4c0.2-0.1,0.4-0.2,0.7-0.3c0.3-0.1,0.6-0.1,0.9-0.1c0.2,0,0.3,0,0.5,0
					c0.2,0,0.4,0.1,0.6,0.1c0.2,0.1,0.4,0.1,0.6,0.2c0.2,0.1,0.4,0.2,0.6,0.3l-0.1-0.6h0.7v2.9h-0.5c0-0.3-0.1-0.6-0.2-0.9
					c-0.1-0.3-0.2-0.6-0.4-0.8c-0.2-0.2-0.4-0.4-0.7-0.5c-0.3-0.1-0.6-0.2-1-0.2c-0.3,0-0.5,0-0.7,0.1c-0.2,0.1-0.4,0.2-0.5,0.3
					c-0.1,0.1-0.2,0.3-0.3,0.5c-0.1,0.2-0.1,0.4-0.1,0.6c0,0.3,0.1,0.6,0.2,0.8c0.1,0.2,0.3,0.4,0.6,0.6c0.2,0.2,0.5,0.3,0.8,0.5
					c0.3,0.1,0.6,0.3,0.9,0.4c0.3,0.1,0.6,0.3,0.9,0.5c0.3,0.2,0.6,0.4,0.8,0.6c0.2,0.2,0.4,0.5,0.6,0.7c0.1,0.3,0.2,0.6,0.2,1
					c0,0.4-0.1,0.7-0.2,1c-0.1,0.3-0.3,0.6-0.6,0.8c-0.3,0.2-0.6,0.4-1,0.5c-0.4,0.1-0.8,0.2-1.3,0.2c-0.2,0-0.4,0-0.6,0
					c-0.2,0-0.4-0.1-0.6-0.1c-0.2-0.1-0.4-0.1-0.6-0.2c-0.2-0.1-0.4-0.2-0.5-0.3L292.2,96.6z"/>
				<path fill="#616161" d="M298.9,91.3c0-0.2,0.1-0.4,0.2-0.6c0.1-0.2,0.3-0.4,0.5-0.5c0.2-0.1,0.5-0.3,0.8-0.3
					c0.3-0.1,0.7-0.1,1-0.1c0.7,0,1.3,0.2,1.6,0.6c0.3,0.4,0.5,1,0.5,1.8l0,2.9c0,0.1,0,0.3,0,0.4c0,0.1,0,0.3,0,0.5l0.9-0.1v0.5
					h-1.9c0-0.1,0-0.3-0.1-0.4c0-0.1,0-0.2,0-0.3c-0.3,0.3-0.6,0.5-1,0.7c-0.3,0.2-0.7,0.3-1.1,0.3c-0.3,0-0.6,0-0.9-0.1
					c-0.2-0.1-0.4-0.2-0.6-0.3c-0.2-0.1-0.3-0.3-0.4-0.5c-0.1-0.2-0.1-0.4-0.1-0.6c0-0.3,0.1-0.5,0.2-0.7c0.1-0.2,0.3-0.4,0.5-0.6
					c0.2-0.2,0.4-0.3,0.7-0.4c0.3-0.1,0.5-0.2,0.8-0.3c0.3-0.1,0.6-0.1,0.9-0.2c0.3,0,0.6-0.1,0.9,0v-0.8c0-0.2,0-0.4,0-0.7
					c0-0.2-0.1-0.4-0.2-0.6c-0.1-0.2-0.2-0.3-0.4-0.4c-0.2-0.1-0.4-0.2-0.6-0.2c-0.1,0-0.3,0-0.4,0c-0.1,0-0.3,0.1-0.4,0.1
					c-0.1,0.1-0.2,0.1-0.3,0.2c-0.1,0.1-0.2,0.2-0.2,0.3c0.1,0.1,0.1,0.2,0.1,0.2c0,0.1,0,0.2,0,0.3c0,0.1,0,0.1,0,0.2
					c0,0.1-0.1,0.1-0.1,0.2c0,0.1-0.1,0.1-0.2,0.1c-0.1,0-0.2,0.1-0.3,0.1c-0.2,0-0.3-0.1-0.4-0.2C299,91.7,298.9,91.5,298.9,91.3z
					 M302.5,93.3c-0.2,0-0.4,0-0.6,0.1c-0.2,0-0.4,0.1-0.6,0.1c-0.2,0.1-0.4,0.1-0.6,0.2c-0.2,0.1-0.3,0.2-0.5,0.3
					c-0.1,0.1-0.2,0.3-0.3,0.4c-0.1,0.2-0.1,0.3-0.1,0.5c0,0.2,0,0.3,0.1,0.4c0.1,0.1,0.1,0.2,0.2,0.3c0.1,0.1,0.2,0.1,0.3,0.2
					c0.1,0,0.2,0.1,0.4,0.1c0.2,0,0.3,0,0.5-0.1c0.2,0,0.3-0.1,0.4-0.1c0.1-0.1,0.3-0.1,0.4-0.2c0.1-0.1,0.3-0.2,0.4-0.3V93.3z"/>
				<path fill="#616161" d="M306,88.4c0-0.1,0-0.3,0-0.4c0-0.1,0-0.3,0-0.5l-0.9,0.1V87c0.3,0,0.5,0,0.7,0c0.2,0,0.3,0,0.5-0.1
					c0.1,0,0.2-0.1,0.3-0.1c0.1,0,0.1-0.1,0.2-0.1h0.4l0,8.4c0,0.2,0,0.3,0,0.5c0,0.1,0,0.3-0.1,0.4l0.8,0v0.5h-2.7v-0.4
					c0.2,0,0.4,0,0.5-0.1c0.1-0.1,0.2-0.2,0.2-0.3c0-0.1,0.1-0.3,0.1-0.5c0-0.2,0-0.4,0-0.6V88.4z"/>
				<path fill="#616161" d="M311.9,96.5h-0.5l-1.9-4.2c-0.1-0.2-0.2-0.5-0.3-0.7c-0.1-0.2-0.1-0.4-0.2-0.5c0-0.1-0.1-0.3-0.1-0.4
					c0-0.1,0-0.2,0-0.3l-0.6,0V90h2.4v0.4c-0.2,0-0.3,0-0.4,0.1c-0.1,0.1-0.1,0.2-0.1,0.3c0,0.1,0,0.3,0.1,0.5
					c0.1,0.2,0.1,0.4,0.2,0.5l1,2.3c0.1,0.1,0.1,0.3,0.2,0.5c0.1,0.2,0.1,0.3,0.2,0.5h0c0-0.1,0.1-0.3,0.1-0.4
					c0.1-0.1,0.1-0.3,0.2-0.4l1-2.9c0.1-0.2,0.1-0.4,0.2-0.5c0.1-0.2,0.1-0.3,0.2-0.3l-0.8,0V90h2.1v0.4c-0.1,0-0.3,0-0.4,0.1
					c-0.1,0.1-0.2,0.2-0.3,0.3c-0.1,0.1-0.2,0.3-0.3,0.5c-0.1,0.2-0.2,0.5-0.3,0.8L311.9,96.5z"/>
				<path fill="#616161" d="M315.7,91.3c0-0.2,0.1-0.4,0.2-0.6c0.1-0.2,0.3-0.4,0.5-0.5c0.2-0.1,0.5-0.3,0.8-0.3
					c0.3-0.1,0.7-0.1,1-0.1c0.7,0,1.3,0.2,1.6,0.6c0.3,0.4,0.5,1,0.5,1.8l0,2.9c0,0.1,0,0.3,0,0.4c0,0.1,0,0.3,0,0.5l0.9-0.1v0.5
					h-1.9c0-0.1,0-0.3-0.1-0.4c0-0.1,0-0.2,0-0.3c-0.3,0.3-0.6,0.5-1,0.7c-0.3,0.2-0.7,0.3-1.1,0.3c-0.3,0-0.6,0-0.9-0.1
					c-0.2-0.1-0.4-0.2-0.6-0.3c-0.2-0.1-0.3-0.3-0.4-0.5c-0.1-0.2-0.1-0.4-0.1-0.6c0-0.3,0.1-0.5,0.2-0.7c0.1-0.2,0.3-0.4,0.5-0.6
					c0.2-0.2,0.4-0.3,0.7-0.4c0.3-0.1,0.5-0.2,0.8-0.3c0.3-0.1,0.6-0.1,0.9-0.2c0.3,0,0.6-0.1,0.9,0v-0.8c0-0.2,0-0.4,0-0.7
					c0-0.2-0.1-0.4-0.2-0.6c-0.1-0.2-0.2-0.3-0.4-0.4c-0.2-0.1-0.4-0.2-0.6-0.2c-0.1,0-0.3,0-0.4,0c-0.1,0-0.3,0.1-0.4,0.1
					c-0.1,0.1-0.2,0.1-0.3,0.2c-0.1,0.1-0.2,0.2-0.2,0.3c0.1,0.1,0.1,0.2,0.1,0.2c0,0.1,0,0.2,0,0.3c0,0.1,0,0.1,0,0.2
					c0,0.1-0.1,0.1-0.1,0.2c0,0.1-0.1,0.1-0.2,0.1c-0.1,0-0.2,0.1-0.3,0.1c-0.2,0-0.3-0.1-0.4-0.2C315.8,91.7,315.7,91.5,315.7,91.3
					z M319.3,93.3c-0.2,0-0.4,0-0.6,0.1c-0.2,0-0.4,0.1-0.6,0.1c-0.2,0.1-0.4,0.1-0.6,0.2c-0.2,0.1-0.3,0.2-0.5,0.3
					c-0.1,0.1-0.2,0.3-0.3,0.4c-0.1,0.2-0.1,0.3-0.1,0.5c0,0.2,0,0.3,0.1,0.4c0.1,0.1,0.1,0.2,0.2,0.3c0.1,0.1,0.2,0.1,0.3,0.2
					c0.1,0,0.2,0.1,0.4,0.1c0.2,0,0.3,0,0.5-0.1c0.2,0,0.3-0.1,0.4-0.1c0.1-0.1,0.3-0.1,0.4-0.2c0.1-0.1,0.3-0.2,0.4-0.3V93.3z"/>
				<path fill="#616161" d="M328.1,95.1c0,0.1,0,0.3,0,0.4c0,0.1,0,0.3,0,0.5l0.9-0.1v0.5h-1.9c0-0.1,0-0.2-0.1-0.4
					c0-0.1,0-0.2,0-0.3c-0.2,0.3-0.6,0.5-0.9,0.6c-0.4,0.2-0.7,0.2-1.2,0.2c-0.4,0-0.8-0.1-1.1-0.2c-0.3-0.2-0.6-0.4-0.9-0.7
					c-0.3-0.3-0.4-0.6-0.6-1c-0.1-0.4-0.2-0.9-0.2-1.4c0-0.5,0.1-1,0.3-1.5c0.2-0.4,0.4-0.8,0.7-1.2c0.3-0.3,0.6-0.6,1.1-0.8
					c0.4-0.2,0.9-0.3,1.3-0.3c0.1,0,0.3,0,0.4,0c0.1,0,0.3,0,0.4,0.1c0.1,0,0.3,0.1,0.4,0.1c0.1,0,0.2,0.1,0.3,0.1l0-1.8
					c0-0.1,0-0.3,0-0.4c0-0.1,0-0.3,0-0.5l-0.9,0.1V87c0.3,0,0.5,0,0.7,0c0.2,0,0.3,0,0.5-0.1c0.1,0,0.2-0.1,0.3-0.1
					c0.1,0,0.1-0.1,0.2-0.1h0.4V95.1z M325.4,96.1c0.1,0,0.3,0,0.4-0.1c0.1,0,0.3-0.1,0.4-0.2c0.1-0.1,0.3-0.2,0.4-0.3
					c0.1-0.1,0.2-0.2,0.3-0.3c0-0.1,0-0.2,0-0.3c0-0.1,0-0.2,0-0.4l0-3.7c-0.2-0.2-0.4-0.3-0.7-0.3c-0.2-0.1-0.5-0.1-0.8-0.1
					c-0.3,0-0.6,0.1-0.9,0.2c-0.3,0.1-0.5,0.3-0.7,0.6c-0.2,0.3-0.3,0.6-0.4,0.9c-0.1,0.3-0.1,0.8-0.1,1.3c0,0.4,0,0.7,0.1,1.1
					c0.1,0.4,0.2,0.7,0.4,0.9c0.2,0.2,0.4,0.4,0.6,0.6C324.8,96,325.1,96.1,325.4,96.1z"/>
				<path fill="#616161" d="M333.2,89.8c0.5,0,0.9,0.1,1.3,0.3c0.4,0.2,0.7,0.4,1,0.7c0.3,0.3,0.5,0.6,0.7,1
					c0.2,0.4,0.3,0.8,0.3,1.3c0,0.5-0.1,1-0.3,1.4c-0.2,0.4-0.4,0.8-0.7,1.1c-0.3,0.3-0.6,0.6-1,0.8c-0.4,0.2-0.8,0.3-1.3,0.3
					c-0.5,0-0.9-0.1-1.3-0.2c-0.4-0.2-0.7-0.4-1-0.7c-0.3-0.3-0.5-0.6-0.7-1c-0.2-0.4-0.3-0.8-0.3-1.3c0-0.5,0.1-1,0.3-1.4
					c0.2-0.4,0.4-0.8,0.7-1.1c0.3-0.3,0.6-0.6,1-0.8C332.3,89.9,332.7,89.8,333.2,89.8z M333.2,90.3c-0.3,0-0.6,0.1-0.9,0.2
					c-0.2,0.2-0.4,0.4-0.6,0.6c-0.2,0.3-0.3,0.5-0.3,0.9c-0.1,0.3-0.1,0.7-0.1,1c0,0.4,0,0.8,0.1,1.2c0.1,0.4,0.2,0.7,0.4,1
					c0.2,0.3,0.4,0.5,0.6,0.7c0.3,0.2,0.6,0.3,0.9,0.3s0.6-0.1,0.9-0.2c0.2-0.2,0.4-0.4,0.6-0.6c0.1-0.3,0.3-0.5,0.3-0.9
					c0.1-0.3,0.1-0.7,0.1-1c0-0.4,0-0.8-0.1-1.2c-0.1-0.4-0.2-0.7-0.3-1c-0.2-0.3-0.4-0.5-0.6-0.7C333.8,90.4,333.5,90.3,333.2,90.3
					z"/>
				<path fill="#616161" d="M341.3,90.5c-0.2,0-0.3,0-0.5,0.1c-0.2,0.1-0.3,0.2-0.5,0.3c-0.2,0.1-0.3,0.3-0.5,0.5
					c-0.1,0.2-0.3,0.4-0.4,0.6l0,3.2c0,0.2,0,0.3,0,0.5c0,0.1,0,0.3,0,0.4l0.8,0v0.5h-2.7v-0.4c0.2,0,0.4,0,0.5-0.1
					c0.1-0.1,0.2-0.2,0.2-0.3c0-0.1,0.1-0.3,0.1-0.5c0-0.2,0-0.4,0-0.6v-3c0-0.1,0-0.3,0-0.4c0-0.1,0-0.3,0-0.4l-0.9,0v-0.5h0.4
					c0.2,0,0.3,0,0.5,0c0.1,0,0.2,0,0.3-0.1c0.1,0,0.2-0.1,0.2-0.1c0.1,0,0.1-0.1,0.2-0.1h0.4c0,0.1,0,0.3,0,0.5c0,0.2,0,0.5,0,0.8
					c0.1-0.2,0.2-0.3,0.4-0.5c0.2-0.2,0.3-0.3,0.5-0.4c0.2-0.1,0.4-0.2,0.6-0.3c0.2-0.1,0.4-0.1,0.7-0.1c0.1,0,0.2,0,0.3,0
					c0.1,0,0.2,0.1,0.3,0.1c0.1,0.1,0.1,0.2,0.2,0.3c0.1,0.1,0.1,0.2,0.1,0.4c0,0.1,0,0.1,0,0.2c0,0.1-0.1,0.1-0.1,0.2
					c-0.1,0.1-0.1,0.1-0.2,0.2c-0.1,0-0.2,0.1-0.3,0.1c-0.1,0-0.2,0-0.3-0.1c-0.1,0-0.1-0.1-0.2-0.2c-0.1-0.1-0.1-0.1-0.1-0.2
					C341.3,90.7,341.3,90.6,341.3,90.5z"/>
				<path fill="#616161" d="M354.7,96h-0.4c-0.1,0-0.3,0-0.6,0.1c-0.2,0.1-0.5,0.1-0.8,0.3c-0.1,0.1-0.3,0.1-0.4,0.1
					c-0.2,0-0.3,0.1-0.5,0.1c-0.2,0-0.3,0.1-0.5,0.1c-0.2,0-0.3,0-0.5,0c-0.7,0-1.2-0.1-1.8-0.3c-0.5-0.2-1-0.5-1.4-0.9
					c-0.4-0.4-0.7-0.9-0.9-1.4c-0.2-0.6-0.3-1.2-0.3-1.9c0-0.4,0-0.8,0.1-1.2c0.1-0.4,0.2-0.8,0.4-1.2c0.2-0.4,0.4-0.7,0.6-1
					c0.2-0.3,0.5-0.6,0.9-0.8c0.3-0.2,0.7-0.4,1.1-0.5c0.4-0.1,0.9-0.2,1.4-0.2c0.2,0,0.5,0,0.7,0.1c0.2,0,0.5,0.1,0.7,0.1
					c0.2,0.1,0.5,0.1,0.7,0.2c0.2,0.1,0.4,0.2,0.6,0.3l-0.1-0.6h0.7v3H354c0-0.4-0.1-0.8-0.3-1.1c-0.2-0.3-0.4-0.6-0.6-0.8
					c-0.2-0.2-0.5-0.4-0.9-0.5c-0.3-0.1-0.7-0.2-1.1-0.2c-0.5,0-0.9,0.1-1.3,0.3c-0.4,0.2-0.8,0.5-1.1,0.9c-0.3,0.4-0.5,0.8-0.7,1.3
					c-0.2,0.5-0.3,1.1-0.3,1.7c0,0.6,0.1,1.2,0.3,1.7c0.2,0.5,0.4,1,0.7,1.3c0.3,0.4,0.7,0.7,1.1,0.9c0.4,0.2,0.9,0.3,1.4,0.3
					c0.2,0,0.4,0,0.5,0c0.2,0,0.4-0.1,0.6-0.1c0.2-0.1,0.4-0.1,0.6-0.2c0.2-0.1,0.4-0.2,0.5-0.3v-2.8l-0.9,0.1v-0.6h2.9v0.4
					c-0.2,0-0.3,0-0.4,0.1c-0.1,0.1-0.2,0.1-0.3,0.2c-0.1,0.1-0.1,0.2-0.2,0.3c0,0.1-0.1,0.2-0.1,0.3c0,0.1,0,0.2,0,0.3
					c0,0.1,0,0.2,0,0.2V96z"/>
				<path fill="#616161" d="M356.8,91.3c0-0.2,0.1-0.4,0.2-0.6c0.1-0.2,0.3-0.4,0.5-0.5c0.2-0.1,0.5-0.3,0.8-0.3
					c0.3-0.1,0.7-0.1,1-0.1c0.7,0,1.3,0.2,1.6,0.6c0.3,0.4,0.5,1,0.5,1.8l0,2.9c0,0.1,0,0.3,0,0.4c0,0.1,0,0.3,0,0.5l0.9-0.1v0.5
					h-1.9c0-0.1,0-0.3-0.1-0.4c0-0.1,0-0.2,0-0.3c-0.3,0.3-0.6,0.5-1,0.7c-0.3,0.2-0.7,0.3-1.1,0.3c-0.3,0-0.6,0-0.9-0.1
					c-0.2-0.1-0.4-0.2-0.6-0.3c-0.2-0.1-0.3-0.3-0.4-0.5c-0.1-0.2-0.1-0.4-0.1-0.6c0-0.3,0.1-0.5,0.2-0.7c0.1-0.2,0.3-0.4,0.5-0.6
					c0.2-0.2,0.4-0.3,0.7-0.4c0.3-0.1,0.5-0.2,0.8-0.3c0.3-0.1,0.6-0.1,0.9-0.2c0.3,0,0.6-0.1,0.9,0v-0.8c0-0.2,0-0.4,0-0.7
					c0-0.2-0.1-0.4-0.2-0.6c-0.1-0.2-0.2-0.3-0.4-0.4c-0.2-0.1-0.4-0.2-0.6-0.2c-0.1,0-0.3,0-0.4,0c-0.1,0-0.3,0.1-0.4,0.1
					c-0.1,0.1-0.2,0.1-0.3,0.2c-0.1,0.1-0.2,0.2-0.2,0.3c0.1,0.1,0.1,0.2,0.1,0.2c0,0.1,0,0.2,0,0.3c0,0.1,0,0.1,0,0.2
					c0,0.1-0.1,0.1-0.1,0.2c0,0.1-0.1,0.1-0.2,0.1c-0.1,0-0.2,0.1-0.3,0.1c-0.2,0-0.3-0.1-0.4-0.2C356.8,91.7,356.8,91.5,356.8,91.3
					z M360.3,93.3c-0.2,0-0.4,0-0.6,0.1c-0.2,0-0.4,0.1-0.6,0.1c-0.2,0.1-0.4,0.1-0.6,0.2c-0.2,0.1-0.3,0.2-0.5,0.3
					c-0.1,0.1-0.2,0.3-0.3,0.4c-0.1,0.2-0.1,0.3-0.1,0.5c0,0.2,0,0.3,0.1,0.4c0.1,0.1,0.1,0.2,0.2,0.3c0.1,0.1,0.2,0.1,0.3,0.2
					c0.1,0,0.2,0.1,0.4,0.1c0.2,0,0.3,0,0.5-0.1c0.2,0,0.3-0.1,0.4-0.1c0.1-0.1,0.3-0.1,0.4-0.2c0.1-0.1,0.3-0.2,0.4-0.3V93.3z"/>
				<path fill="#616161" d="M366.2,96.5h-0.5l-1.9-4.2c-0.1-0.2-0.2-0.5-0.3-0.7c-0.1-0.2-0.1-0.4-0.2-0.5c0-0.1-0.1-0.3-0.1-0.4
					c0-0.1,0-0.2,0-0.3l-0.6,0V90h2.4v0.4c-0.2,0-0.3,0-0.4,0.1c-0.1,0.1-0.1,0.2-0.1,0.3c0,0.1,0,0.3,0.1,0.5
					c0.1,0.2,0.1,0.4,0.2,0.5l1,2.3c0.1,0.1,0.1,0.3,0.2,0.5c0.1,0.2,0.1,0.3,0.2,0.5h0c0-0.1,0.1-0.3,0.1-0.4
					c0.1-0.1,0.1-0.3,0.2-0.4l1-2.9c0.1-0.2,0.1-0.4,0.2-0.5c0.1-0.2,0.1-0.3,0.2-0.3l-0.8,0V90h2.1v0.4c-0.1,0-0.3,0-0.4,0.1
					c-0.1,0.1-0.2,0.2-0.3,0.3c-0.1,0.1-0.2,0.3-0.3,0.5c-0.1,0.2-0.2,0.5-0.3,0.8L366.2,96.5z"/>
				<path fill="#616161" d="M370.5,91.6c0-0.1,0-0.3,0-0.4c0-0.1,0-0.3,0-0.5l-0.9,0.1v-0.5c0.3,0,0.5,0,0.7,0c0.2,0,0.3,0,0.5-0.1
					c0.1,0,0.2-0.1,0.3-0.1c0.1,0,0.1-0.1,0.2-0.1h0.4v5.2c0,0.2,0,0.3,0,0.5c0,0.1,0,0.3,0,0.4l0.8,0v0.5h-2.7v-0.4
					c0.2,0,0.4,0,0.5-0.1c0.1-0.1,0.2-0.2,0.2-0.3c0-0.1,0.1-0.3,0.1-0.5c0-0.2,0-0.4,0-0.6V91.6z M371.8,87.8c0,0.1,0,0.2-0.1,0.3
					c0,0.1-0.1,0.2-0.2,0.2c-0.1,0.1-0.1,0.1-0.2,0.2s-0.2,0.1-0.3,0.1c-0.1,0-0.2,0-0.3-0.1s-0.2-0.1-0.2-0.2
					c-0.1-0.1-0.1-0.2-0.2-0.2c0-0.1-0.1-0.2-0.1-0.3c0-0.1,0-0.2,0.1-0.3c0-0.1,0.1-0.2,0.2-0.3c0.1-0.1,0.1-0.1,0.2-0.2
					c0.1,0,0.2-0.1,0.3-0.1s0.2,0,0.3,0.1c0.1,0,0.2,0.1,0.2,0.2c0.1,0.1,0.1,0.2,0.1,0.3C371.7,87.6,371.8,87.7,371.8,87.8z"/>
				<path fill="#616161" d="M376.6,89.8c0.5,0,0.9,0.1,1.3,0.3c0.4,0.2,0.7,0.4,1,0.7c0.3,0.3,0.5,0.6,0.7,1
					c0.2,0.4,0.3,0.8,0.3,1.3c0,0.5-0.1,1-0.3,1.4c-0.2,0.4-0.4,0.8-0.7,1.1c-0.3,0.3-0.6,0.6-1,0.8c-0.4,0.2-0.8,0.3-1.3,0.3
					c-0.5,0-0.9-0.1-1.3-0.2c-0.4-0.2-0.7-0.4-1-0.7c-0.3-0.3-0.5-0.6-0.7-1c-0.2-0.4-0.3-0.8-0.3-1.3c0-0.5,0.1-1,0.3-1.4
					c0.2-0.4,0.4-0.8,0.7-1.1c0.3-0.3,0.6-0.6,1-0.8C375.7,89.9,376.2,89.8,376.6,89.8z M376.6,90.3c-0.3,0-0.6,0.1-0.9,0.2
					c-0.2,0.2-0.4,0.4-0.6,0.6c-0.2,0.3-0.3,0.5-0.3,0.9c-0.1,0.3-0.1,0.7-0.1,1c0,0.4,0,0.8,0.1,1.2c0.1,0.4,0.2,0.7,0.4,1
					c0.2,0.3,0.4,0.5,0.6,0.7c0.3,0.2,0.6,0.3,0.9,0.3s0.6-0.1,0.9-0.2c0.2-0.2,0.4-0.4,0.6-0.6c0.1-0.3,0.3-0.5,0.3-0.9
					c0.1-0.3,0.1-0.7,0.1-1c0-0.4,0-0.8-0.1-1.2c-0.1-0.4-0.2-0.7-0.3-1c-0.2-0.3-0.4-0.5-0.6-0.7C377.3,90.4,377,90.3,376.6,90.3z"
					/>
				<path fill="#616161" d="M380.7,90c0.2,0,0.4-0.1,0.6-0.2c0.2-0.1,0.4-0.3,0.5-0.5c0.1-0.2,0.3-0.4,0.4-0.6
					c0.1-0.2,0.2-0.4,0.2-0.6h0.4c0,0.3,0,0.7,0,1c0,0.3,0,0.6,0,0.9h2.2v0.5l-2.2,0c0,0.6,0,1,0,1.4c0,0.4,0,0.7,0,1
					c0,0.3,0,0.5,0,0.6c0,0.2,0,0.3,0,0.4c0,0.1,0,0.1,0,0.2c0,0,0,0,0,0c0,0.3,0,0.6,0,0.8c0,0.2,0.1,0.4,0.2,0.6
					c0.1,0.2,0.2,0.3,0.3,0.3c0.1,0.1,0.3,0.1,0.5,0.1c0.2,0,0.4-0.1,0.7-0.2c0.2-0.1,0.4-0.3,0.6-0.6l0.3,0.3
					c-0.2,0.3-0.4,0.5-0.6,0.7c-0.2,0.2-0.4,0.3-0.5,0.4c-0.2,0.1-0.3,0.1-0.5,0.2c-0.1,0-0.3,0-0.4,0c-0.1,0-0.3,0-0.4,0
					c-0.1,0-0.3-0.1-0.4-0.1c-0.1-0.1-0.3-0.1-0.4-0.3c-0.1-0.1-0.2-0.3-0.3-0.4c-0.1-0.2-0.2-0.4-0.2-0.6s-0.1-0.6-0.1-0.9l0-3.8
					l-1,0V90z"/>
				<path fill="#616161" d="M386.3,91.3c0-0.2,0.1-0.4,0.2-0.6c0.1-0.2,0.3-0.4,0.5-0.5c0.2-0.1,0.5-0.3,0.8-0.3
					c0.3-0.1,0.7-0.1,1-0.1c0.7,0,1.3,0.2,1.6,0.6c0.3,0.4,0.5,1,0.5,1.8l0,2.9c0,0.1,0,0.3,0,0.4c0,0.1,0,0.3,0,0.5l0.9-0.1v0.5
					H390c0-0.1,0-0.3-0.1-0.4c0-0.1,0-0.2,0-0.3c-0.3,0.3-0.6,0.5-1,0.7c-0.3,0.2-0.7,0.3-1.1,0.3c-0.3,0-0.6,0-0.9-0.1
					c-0.2-0.1-0.4-0.2-0.6-0.3c-0.2-0.1-0.3-0.3-0.4-0.5c-0.1-0.2-0.1-0.4-0.1-0.6c0-0.3,0.1-0.5,0.2-0.7c0.1-0.2,0.3-0.4,0.5-0.6
					c0.2-0.2,0.4-0.3,0.7-0.4c0.3-0.1,0.5-0.2,0.8-0.3c0.3-0.1,0.6-0.1,0.9-0.2c0.3,0,0.6-0.1,0.9,0v-0.8c0-0.2,0-0.4,0-0.7
					c0-0.2-0.1-0.4-0.2-0.6c-0.1-0.2-0.2-0.3-0.4-0.4c-0.2-0.1-0.4-0.2-0.6-0.2c-0.1,0-0.3,0-0.4,0c-0.1,0-0.3,0.1-0.4,0.1
					c-0.1,0.1-0.2,0.1-0.3,0.2c-0.1,0.1-0.2,0.2-0.2,0.3c0.1,0.1,0.1,0.2,0.1,0.2c0,0.1,0,0.2,0,0.3c0,0.1,0,0.1,0,0.2
					c0,0.1-0.1,0.1-0.1,0.2c0,0.1-0.1,0.1-0.2,0.1c-0.1,0-0.2,0.1-0.3,0.1c-0.2,0-0.3-0.1-0.4-0.2C386.4,91.7,386.3,91.5,386.3,91.3
					z M389.9,93.3c-0.2,0-0.4,0-0.6,0.1c-0.2,0-0.4,0.1-0.6,0.1c-0.2,0.1-0.4,0.1-0.6,0.2c-0.2,0.1-0.3,0.2-0.5,0.3
					c-0.1,0.1-0.2,0.3-0.3,0.4c-0.1,0.2-0.1,0.3-0.1,0.5c0,0.2,0,0.3,0.1,0.4c0.1,0.1,0.1,0.2,0.2,0.3c0.1,0.1,0.2,0.1,0.3,0.2
					c0.1,0,0.2,0.1,0.4,0.1c0.2,0,0.3,0,0.5-0.1c0.2,0,0.3-0.1,0.4-0.1c0.1-0.1,0.3-0.1,0.4-0.2c0.1-0.1,0.3-0.2,0.4-0.3V93.3z"/>
			</g>
		</g>
		<g>
			<g>
				<path fill="#FFFFFF" d="M225.6,112.4c-0.8-0.2-1.4-0.4-1.8-0.9c-0.4-0.4-0.6-0.9-0.6-1.6c0-0.9,0.3-1.5,1-2
					c0.6-0.5,1.5-0.7,2.4-0.7c1.1,0,1.9,0.2,2.5,0.7c0.6,0.5,1,1.1,1,2c0,0.6-0.2,1.1-0.6,1.5c-0.4,0.4-0.9,0.7-1.7,0.9
					c0.8,0.1,1.5,0.4,1.9,0.9c0.4,0.5,0.6,1.1,0.6,1.9c0,1-0.4,1.7-1.1,2.3c-0.7,0.5-1.6,0.8-2.6,0.8c-1.1,0-2.1-0.3-2.8-0.8
					c-0.7-0.5-1.1-1.3-1.1-2.3c0-0.7,0.2-1.3,0.6-1.8C224,112.9,224.7,112.6,225.6,112.4z M225.6,115c0,1,0.1,1.6,0.2,1.9
					c0.2,0.3,0.5,0.5,0.9,0.5c0.4,0,0.6-0.1,0.8-0.4c0.2-0.3,0.3-0.9,0.3-1.8c0-1.1-0.1-1.7-0.3-2c-0.2-0.3-0.5-0.4-0.9-0.4
					c-0.4,0-0.7,0.1-0.9,0.4C225.7,113.6,225.6,114.2,225.6,115z M225.8,109.9c0,0.9,0.1,1.5,0.2,1.8c0.2,0.3,0.4,0.4,0.8,0.4
					c0.4,0,0.6-0.2,0.7-0.5c0.1-0.3,0.2-0.9,0.2-1.7c0-0.7-0.1-1.2-0.3-1.4c-0.2-0.2-0.4-0.3-0.7-0.3c-0.3,0-0.6,0.1-0.7,0.3
					C225.8,108.7,225.8,109.2,225.8,109.9z"/>
				<path fill="#FFFFFF" d="M232.5,112.7l0.2-5.3h5.3c-0.2,0.6-0.4,1-0.6,1.3c-0.1,0.2-0.3,0.4-0.3,0.4c-0.1,0-0.3,0-0.7,0h-2.9
					l-0.1,2.5c0.5-0.4,1.1-0.6,1.9-0.6c0.9,0,1.7,0.3,2.4,0.9c0.7,0.6,1.1,1.5,1.1,2.6c0,1.2-0.4,2.2-1.3,2.9c-0.9,0.7-1.9,1-3.1,1
					c-0.8,0-1.5-0.2-2-0.5c-0.5-0.3-0.8-0.7-0.8-1.2c0-0.3,0.1-0.5,0.3-0.6c0.2-0.2,0.4-0.3,0.7-0.3c0.4,0,0.7,0.3,1,0.8
					c0.3,0.6,0.7,0.9,1.2,0.9c0.5,0,0.8-0.2,1.1-0.6c0.2-0.4,0.4-1.2,0.4-2.4c0-0.9-0.1-1.6-0.3-1.9c-0.2-0.4-0.6-0.6-1.1-0.6
					c-0.5,0-0.9,0.3-1.2,0.8H232.5z"/>
				<path fill="#FFFFFF" d="M241,110.2c0-0.9,0.2-1.6,0.7-2.1c0.5-0.5,1.1-0.8,1.9-0.8c0.9,0,1.6,0.3,2,0.8c0.4,0.5,0.7,1.2,0.7,2
					c0,0.8-0.2,1.5-0.7,2c-0.5,0.5-1.1,0.8-1.8,0.8c-0.9,0-1.6-0.3-2-0.8C241.2,111.6,241,110.9,241,110.2z M242.9,110.1
					c0,1,0,1.6,0.1,1.9c0.1,0.3,0.3,0.4,0.5,0.4c0.2,0,0.4-0.2,0.5-0.5c0.1-0.3,0.2-0.8,0.2-1.5c0-1,0-1.6-0.1-2
					c-0.1-0.4-0.3-0.6-0.5-0.6c-0.2,0-0.4,0.1-0.5,0.4C243,108.6,242.9,109.2,242.9,110.1z M244.4,118.1l5.4-10.6h1.1l-5.4,10.6
					H244.4z M248.9,115.6c0-0.9,0.2-1.6,0.7-2.1c0.5-0.5,1.1-0.8,1.9-0.8c0.9,0,1.6,0.3,2,0.8c0.4,0.5,0.7,1.2,0.7,2
					c0,0.8-0.2,1.5-0.7,2c-0.5,0.5-1.1,0.8-1.8,0.8c-0.9,0-1.6-0.3-2-0.8C249.2,117,248.9,116.3,248.9,115.6z M250.9,115.5
					c0,1,0.1,1.6,0.2,1.9c0.1,0.3,0.3,0.4,0.5,0.4c0.2,0,0.4-0.2,0.5-0.5c0.1-0.3,0.2-0.8,0.2-1.5c0-1,0-1.6-0.1-2
					c-0.1-0.4-0.3-0.6-0.5-0.6c-0.2,0-0.4,0.1-0.5,0.4C251,113.9,250.9,114.5,250.9,115.5z"/>
			</g>
		</g>
		<rect x="238.5" y="158.7" fill="#DBDCDE" width="160.7" height="21.1"/>
		<rect x="201.6" y="158.7" fill="#AC603E" width="142" height="21.1"/>
		<g>
			<g>
				<path fill="#AC603E" d="M203,142.2h2.4c0.3,0.8,0.6,1.6,0.9,2.4c0.3,0.8,0.6,1.5,0.9,2.3c0.3,0.8,0.6,1.5,0.8,2.3
					c0.3,0.7,0.6,1.5,0.9,2.3h0c0.1-0.1,0.1-0.3,0.2-0.5c0.1-0.2,0.2-0.4,0.2-0.5c0.1-0.2,0.2-0.4,0.2-0.5c0.1-0.2,0.1-0.3,0.2-0.5
					c0.3-0.6,0.5-1.2,0.8-1.8c0.3-0.6,0.6-1.2,0.9-1.8c0.3-0.6,0.6-1.2,0.9-1.8c0.3-0.6,0.6-1.2,0.8-1.8h2.3l0,0.5
					c-0.2,0-0.4,0-0.5,0.1c-0.2,0.1-0.3,0.2-0.4,0.3c-0.1,0.1-0.2,0.3-0.2,0.5c0,0.2-0.1,0.5-0.1,0.8l0,7.3c0,0.2,0,0.4,0,0.5
					c0,0.2,0,0.3,0,0.5l1.2-0.1l0,0.7h-3.5l0-0.5h0.1c0.2,0,0.4-0.1,0.5-0.2c0.1-0.1,0.2-0.2,0.3-0.4c0.1-0.2,0.1-0.4,0.1-0.6
					c0-0.2,0-0.5,0-0.8v-5.5c0-0.2,0-0.5,0-0.7c0-0.2,0-0.5,0-0.7h0l-0.6,1.2l-3.8,8.2h-0.5c-0.5-1.3-1-2.5-1.4-3.8
					c-0.4-1.3-0.9-2.5-1.4-3.8c-0.1-0.2-0.1-0.4-0.2-0.5c-0.1-0.2-0.1-0.3-0.2-0.4c-0.1-0.1-0.1-0.3-0.2-0.5
					c-0.1-0.2-0.1-0.4-0.2-0.6h0c0,0.6-0.1,1.2-0.1,1.7c0,0.5-0.1,1-0.1,1.5l-0.4,4.3c0,0.2,0,0.5-0.1,0.7c0,0.2,0,0.5-0.1,0.6
					l1.2-0.1l0,0.7h-3l0-0.5c0.3,0,0.4,0,0.6-0.1c0.1-0.1,0.3-0.2,0.3-0.3c0.1-0.1,0.1-0.3,0.2-0.5c0-0.2,0.1-0.4,0.1-0.6l0.9-8.6
					l-1.1,0L203,142.2z"/>
				<path fill="#AC603E" d="M222.9,146.3c0-0.2,0-0.3,0-0.4c0-0.1,0-0.3,0-0.4h1.3c0,0.1,0,0.2,0,0.2c0,0.2,0,0.3,0,0.5
					c0,0.2,0,0.4,0,0.6c0,0.3-0.1,0.6-0.1,0.9c0,0.4-0.1,0.8-0.2,1.4c0,0.4-0.1,0.8-0.1,1.1c0,0.3-0.1,0.5-0.1,0.7
					c0,0.2,0,0.4-0.1,0.5c0,0.1,0,0.2,0,0.3c0,0.1,0,0.2,0,0.2c0,0.1,0,0.1,0,0.2c0,0.2,0,0.4,0.1,0.5c0.1,0.1,0.2,0.2,0.3,0.2
					c0.1,0,0.2,0,0.3-0.1c0.1-0.1,0.2-0.1,0.3-0.3c0.1-0.1,0.2-0.3,0.3-0.5c0.1-0.2,0.2-0.4,0.3-0.7l0.4,0.1c0,0.2-0.1,0.4-0.2,0.7
					c-0.1,0.3-0.2,0.5-0.4,0.7c-0.2,0.2-0.4,0.4-0.6,0.6c-0.2,0.2-0.5,0.2-0.8,0.2c-0.2,0-0.4,0-0.6-0.1c-0.2-0.1-0.3-0.2-0.4-0.3
					c-0.1-0.1-0.2-0.3-0.2-0.5c0-0.2-0.1-0.4-0.1-0.6c0-0.3,0-0.6,0.1-1c0.1-0.4,0.1-0.7,0.2-1.1h0c-0.3,0.7-0.5,1.3-0.8,1.8
					c-0.3,0.5-0.5,0.8-0.7,1.1c-0.2,0.3-0.5,0.4-0.7,0.6c-0.2,0.1-0.5,0.2-0.8,0.2c-0.3,0-0.6-0.1-0.8-0.2c-0.2-0.1-0.4-0.3-0.5-0.5
					c-0.1-0.2-0.2-0.4-0.3-0.7c-0.1-0.3-0.1-0.5-0.1-0.8c0-0.4,0-0.9,0.1-1.4c0.1-0.5,0.1-0.9,0.2-1.3c0.1-0.4,0.1-0.8,0.2-1.2
					c0.1-0.4,0.1-0.6,0.1-0.9c0-0.1,0-0.2,0-0.3c0-0.1,0-0.2-0.1-0.2c0-0.1-0.1-0.1-0.1-0.2c-0.1,0-0.1-0.1-0.2-0.1
					c-0.1,0-0.2,0-0.3,0.1c-0.1,0.1-0.2,0.1-0.3,0.3c-0.1,0.1-0.2,0.3-0.3,0.5c-0.1,0.2-0.2,0.4-0.3,0.7l-0.4-0.1
					c0-0.2,0.1-0.4,0.2-0.7c0.1-0.3,0.2-0.5,0.4-0.7c0.2-0.2,0.4-0.4,0.6-0.6c0.2-0.2,0.5-0.2,0.8-0.2c0.4,0,0.8,0.1,1,0.4
					c0.2,0.3,0.3,0.7,0.3,1.2c0,0.2,0,0.4,0,0.7c0,0.3-0.1,0.5-0.1,0.8c0,0.3-0.1,0.6-0.1,0.9c0,0.3-0.1,0.6-0.1,0.9
					c0,0.3-0.1,0.6-0.1,0.9c0,0.3,0,0.5,0,0.8c0,0.1,0,0.2,0,0.3c0,0.1,0.1,0.2,0.1,0.3c0.1,0.1,0.1,0.2,0.2,0.3
					c0.1,0.1,0.2,0.1,0.4,0.1c0.2,0,0.5-0.1,0.7-0.3c0.2-0.2,0.5-0.5,0.7-0.8c0.2-0.3,0.4-0.7,0.6-1.2c0.2-0.4,0.4-0.9,0.5-1.4
					c0.1-0.5,0.3-1,0.3-1.5C222.9,147.2,222.9,146.7,222.9,146.3z M220.9,144.2l-0.4-0.3l1.2-2.1c0.1-0.2,0.2-0.3,0.4-0.4
					c0.1-0.1,0.2-0.1,0.3-0.1c0.2,0,0.3,0,0.4,0.1c0.1,0.1,0.1,0.2,0.1,0.4c0,0.1,0,0.2-0.1,0.3c-0.1,0.1-0.1,0.2-0.3,0.4
					L220.9,144.2z"/>
				<path fill="#AC603E" d="M227.4,152.3c0,0.1,0.1,0.2,0.2,0.3c0.1,0.1,0.2,0.2,0.3,0.2c0.1,0.1,0.3,0.1,0.4,0.1
					c0.1,0,0.3,0.1,0.4,0.1c0.6,0,1-0.1,1.3-0.4c0.3-0.3,0.4-0.6,0.4-1.1c0-0.3-0.1-0.5-0.3-0.7c-0.2-0.2-0.4-0.4-0.7-0.6
					c-0.3-0.2-0.6-0.4-0.9-0.6c-0.3-0.2-0.6-0.4-0.9-0.6c-0.3-0.2-0.5-0.4-0.7-0.7c-0.2-0.3-0.3-0.5-0.3-0.9c0-0.3,0.1-0.6,0.2-0.8
					c0.1-0.3,0.3-0.5,0.6-0.7c0.2-0.2,0.5-0.4,0.9-0.5c0.3-0.1,0.7-0.2,1.1-0.2c0.3,0,0.6,0,0.9,0.1c0.3,0.1,0.5,0.2,0.8,0.3
					c0.2,0.1,0.4,0.3,0.5,0.5c0.1,0.2,0.2,0.4,0.2,0.6c0,0.2-0.1,0.4-0.2,0.5c-0.1,0.1-0.3,0.2-0.5,0.2c-0.2,0-0.3-0.1-0.5-0.2
					c-0.1-0.1-0.2-0.3-0.2-0.4c0-0.1,0-0.2,0-0.3c0-0.1,0.1-0.2,0.1-0.3c-0.1-0.2-0.2-0.3-0.4-0.4c-0.2-0.1-0.5-0.2-0.9-0.2
					c-0.2,0-0.4,0-0.5,0.1c-0.2,0.1-0.3,0.1-0.5,0.3c-0.1,0.1-0.3,0.2-0.3,0.4c-0.1,0.2-0.1,0.3-0.1,0.5c0,0.2,0.1,0.4,0.2,0.5
					c0.1,0.2,0.3,0.3,0.4,0.5c0.2,0.1,0.4,0.3,0.6,0.4c0.2,0.1,0.5,0.3,0.7,0.4c0.2,0.1,0.5,0.3,0.7,0.5c0.2,0.2,0.4,0.3,0.6,0.5
					c0.2,0.2,0.3,0.4,0.4,0.6c0.1,0.2,0.2,0.5,0.2,0.8c0,0.3-0.1,0.6-0.2,0.9c-0.1,0.3-0.4,0.5-0.6,0.7c-0.3,0.2-0.6,0.4-1,0.5
					c-0.4,0.1-0.8,0.2-1.2,0.2c-0.3,0-0.6,0-0.9-0.1c-0.3-0.1-0.6-0.2-0.8-0.3c-0.2-0.1-0.4-0.3-0.6-0.5c-0.1-0.2-0.2-0.5-0.2-0.7
					c0-0.2,0.1-0.4,0.2-0.6c0.1-0.1,0.3-0.2,0.5-0.2c0.2,0,0.4,0.1,0.5,0.2c0.1,0.1,0.2,0.3,0.2,0.5c0,0.1,0,0.2,0,0.2
					C227.5,152.1,227.5,152.2,227.4,152.3z"/>
				<path fill="#AC603E" d="M236.1,146.9c0,0.3,0,0.7-0.1,1.1c-0.1,0.4-0.1,0.9-0.2,1.3c-0.1,0.5-0.1,0.9-0.2,1.4
					c-0.1,0.5-0.1,0.9-0.1,1.4c0,0.2,0,0.4,0.1,0.5c0.1,0.1,0.2,0.2,0.4,0.2c0.1,0,0.2,0,0.3-0.1c0.1-0.1,0.2-0.1,0.3-0.3
					c0.1-0.1,0.2-0.3,0.3-0.5c0.1-0.2,0.2-0.4,0.3-0.7l0.5,0.1c0,0.2-0.1,0.5-0.2,0.7c-0.1,0.3-0.2,0.5-0.4,0.7
					c-0.2,0.2-0.4,0.4-0.6,0.6c-0.2,0.2-0.5,0.2-0.8,0.2c-1,0-1.4-0.5-1.4-1.5c0-0.5,0-0.9,0.1-1.4c0.1-0.4,0.1-0.9,0.2-1.3
					c0.1-0.4,0.1-0.9,0.2-1.3c0.1-0.4,0.1-0.9,0.1-1.3c0-0.1,0-0.1,0-0.2c0-0.1,0-0.2-0.1-0.2c0-0.1-0.1-0.1-0.1-0.2
					c-0.1,0-0.1-0.1-0.2-0.1c-0.1,0-0.2,0-0.3,0.1c-0.1,0.1-0.2,0.1-0.3,0.3c-0.1,0.1-0.2,0.3-0.3,0.5c-0.1,0.2-0.2,0.4-0.3,0.7
					l-0.4-0.1c0-0.2,0.1-0.4,0.2-0.7c0.1-0.3,0.2-0.5,0.4-0.7c0.2-0.2,0.4-0.4,0.6-0.6c0.2-0.2,0.5-0.2,0.8-0.2c0.2,0,0.4,0,0.6,0.1
					c0.2,0.1,0.3,0.2,0.4,0.3c0.1,0.1,0.2,0.3,0.3,0.5C236,146.5,236.1,146.7,236.1,146.9z M236.5,142.7c0,0.1,0,0.3-0.1,0.4
					c0,0.1-0.1,0.2-0.2,0.3c-0.1,0.1-0.2,0.1-0.3,0.2c-0.1,0-0.2,0.1-0.3,0.1c-0.1,0-0.2,0-0.3-0.1c-0.1,0-0.2-0.1-0.3-0.2
					c-0.1-0.1-0.1-0.2-0.2-0.3c0-0.1-0.1-0.2-0.1-0.4c0-0.1,0-0.3,0.1-0.4c0-0.1,0.1-0.2,0.2-0.3c0.1-0.1,0.2-0.1,0.3-0.2
					c0.1,0,0.2-0.1,0.3-0.1c0.3,0,0.5,0.1,0.6,0.2C236.4,142.2,236.5,142.4,236.5,142.7z"/>
				<path fill="#AC603E" d="M244.6,147.1c0,0.3-0.1,0.4-0.2,0.6c-0.1,0.1-0.3,0.2-0.5,0.2c-0.1,0-0.2,0-0.3-0.1
					c-0.1,0-0.1-0.1-0.2-0.2c0-0.1-0.1-0.1-0.1-0.2c0-0.1,0-0.1,0-0.2c0-0.1,0-0.2,0-0.3c0-0.1,0.1-0.2,0.2-0.3
					c-0.1-0.3-0.2-0.5-0.4-0.6c-0.2-0.1-0.5-0.2-0.8-0.2c-0.3,0-0.6,0.1-0.8,0.2c-0.2,0.1-0.4,0.3-0.6,0.5c-0.2,0.2-0.3,0.4-0.4,0.7
					c-0.1,0.3-0.2,0.5-0.3,0.8c-0.1,0.3-0.1,0.6-0.2,0.9c0,0.3-0.1,0.6-0.1,0.9c0,0.6,0,1,0.1,1.4c0.1,0.4,0.2,0.7,0.4,1
					c0.2,0.2,0.4,0.4,0.6,0.5c0.2,0.1,0.5,0.2,0.8,0.2c0.2,0,0.4,0,0.6-0.1c0.2-0.1,0.4-0.2,0.7-0.3c0.2-0.2,0.4-0.4,0.6-0.6
					c0.2-0.3,0.4-0.6,0.5-1l0.6,0.3c-0.2,0.5-0.4,0.9-0.7,1.2s-0.5,0.6-0.8,0.8c-0.3,0.2-0.6,0.3-0.9,0.4c-0.3,0.1-0.6,0.1-0.9,0.1
					c-0.5,0-0.9-0.1-1.3-0.2c-0.4-0.1-0.7-0.4-1-0.6c-0.3-0.3-0.5-0.7-0.6-1.1c-0.1-0.4-0.2-1-0.2-1.6c0-0.3,0-0.7,0.1-1.1
					c0.1-0.4,0.2-0.7,0.3-1.1c0.1-0.4,0.3-0.7,0.5-1c0.2-0.3,0.5-0.6,0.7-0.8c0.3-0.2,0.6-0.4,1-0.6c0.4-0.1,0.8-0.2,1.2-0.2
					c0.3,0,0.7,0,1,0.1c0.3,0.1,0.5,0.2,0.8,0.4c0.2,0.2,0.4,0.4,0.5,0.6C244.6,146.6,244.6,146.9,244.6,147.1z"/>
				<path fill="#AC603E" d="M252.7,145.5c-0.1,0.7-0.2,1.3-0.3,2c-0.1,0.7-0.2,1.3-0.2,1.9c-0.1,0.6-0.1,1.1-0.2,1.5
					c0,0.5-0.1,0.8-0.1,1c0,0.1,0,0.2,0,0.3c0,0.1,0,0.2,0.1,0.3c0,0.1,0.1,0.2,0.1,0.2c0.1,0.1,0.1,0.1,0.3,0.1
					c0.1,0,0.2,0,0.3-0.1c0.1-0.1,0.2-0.1,0.3-0.3c0.1-0.1,0.2-0.3,0.3-0.5c0.1-0.2,0.2-0.4,0.3-0.7l0.5,0.1c0,0.2-0.1,0.4-0.2,0.7
					c-0.1,0.3-0.2,0.5-0.4,0.7c-0.2,0.2-0.4,0.4-0.6,0.6c-0.2,0.2-0.5,0.2-0.8,0.2c-0.2,0-0.4,0-0.5-0.1c-0.2-0.1-0.3-0.2-0.4-0.3
					c-0.1-0.1-0.2-0.3-0.2-0.5c0-0.2-0.1-0.4-0.1-0.6c0-0.3,0-0.6,0.1-1c0.1-0.4,0.1-0.7,0.2-1.1h0c-0.2,0.5-0.3,1-0.5,1.4
					c-0.2,0.4-0.4,0.7-0.5,1c-0.2,0.3-0.4,0.5-0.6,0.6c-0.2,0.2-0.4,0.3-0.5,0.4c-0.2,0.1-0.3,0.2-0.5,0.2c-0.2,0-0.3,0-0.5,0
					c-0.3,0-0.6-0.1-0.8-0.2c-0.2-0.1-0.5-0.3-0.6-0.5c-0.2-0.2-0.3-0.5-0.4-0.9c-0.1-0.4-0.2-0.8-0.2-1.3c0-0.8,0.1-1.5,0.3-2.1
					c0.2-0.7,0.5-1.3,0.9-1.8c0.4-0.5,0.9-0.9,1.5-1.2c0.6-0.3,1.3-0.4,2-0.4c0.3,0,0.7,0,1.1,0.1
					C252,145.4,252.4,145.5,252.7,145.5z M251.3,146c-0.2-0.1-0.3-0.1-0.6-0.1c-0.2,0-0.4,0-0.7,0c-0.5,0-0.9,0.1-1.3,0.4
					c-0.4,0.3-0.7,0.6-0.9,1.1c-0.2,0.4-0.4,1-0.5,1.5c-0.1,0.6-0.2,1.1-0.2,1.7c0,0.3,0,0.7,0.1,0.9c0,0.3,0.1,0.5,0.2,0.7
					c0.1,0.2,0.2,0.4,0.3,0.5c0.1,0.1,0.3,0.2,0.5,0.2c0.2,0,0.5-0.1,0.7-0.3c0.2-0.2,0.5-0.5,0.7-0.8c0.2-0.3,0.4-0.8,0.6-1.2
					c0.2-0.5,0.4-1,0.5-1.5c0.1-0.5,0.3-1,0.3-1.6C251.3,147,251.3,146.5,251.3,146z"/>
				<path fill="#616161" d="M264.9,149.8l-5.8,2.6v-0.8l4.9-2.2l-4.9-2.2v-0.8l5.8,2.5V149.8z"/>
				<path fill="#616161" d="M278.3,149.4c-0.1,0-0.3,0-0.4,0c-0.1,0-0.3,0-0.4,0v2.5c0,0.2,0,0.4,0,0.6c0,0.2,0,0.3,0,0.4l0.9-0.1
					v0.6h-2.9V153c0.2,0,0.4-0.1,0.6-0.1c0.1-0.1,0.2-0.2,0.3-0.3c0.1-0.1,0.1-0.3,0.1-0.5c0-0.2,0-0.4,0-0.6v-5.6
					c0-0.2,0-0.3,0-0.5c0-0.2,0-0.3,0-0.4l-0.9,0.1v-0.6c0.5,0,1,0,1.5,0c0.5,0,1,0,1.5,0c0.6,0,1.2,0.1,1.6,0.2
					c0.4,0.1,0.8,0.3,1.1,0.5c0.3,0.2,0.5,0.4,0.6,0.7c0.1,0.3,0.2,0.6,0.2,1c0,0.3,0,0.5-0.1,0.8c-0.1,0.3-0.2,0.5-0.4,0.8
					c-0.2,0.2-0.4,0.4-0.7,0.6c-0.3,0.2-0.7,0.3-1.2,0.4c0.2,0.1,0.3,0.3,0.5,0.5c0.1,0.2,0.3,0.4,0.4,0.7l0.9,1.4
					c0.1,0.2,0.2,0.3,0.3,0.5c0.1,0.2,0.2,0.3,0.3,0.4c0.1,0.1,0.3,0.2,0.4,0.3c0.1,0.1,0.3,0.1,0.5,0.1v0.4h-1.6
					c-0.1-0.1-0.2-0.2-0.3-0.3c-0.1-0.1-0.2-0.2-0.3-0.3c-0.1-0.1-0.2-0.2-0.3-0.4c-0.1-0.1-0.2-0.3-0.3-0.4l-0.9-1.4
					c-0.1-0.1-0.1-0.2-0.2-0.3c-0.1-0.1-0.1-0.2-0.2-0.3c-0.1-0.1-0.1-0.2-0.2-0.3C278.4,149.6,278.4,149.5,278.3,149.4z
					 M277.4,148.9c0.1,0,0.3,0,0.4,0c0.1,0,0.3,0,0.4,0c0.4,0,0.7-0.1,1-0.1c0.3-0.1,0.5-0.2,0.8-0.4c0.2-0.2,0.4-0.4,0.5-0.6
					c0.1-0.3,0.2-0.6,0.2-1c0-0.7-0.2-1.1-0.6-1.5c-0.4-0.3-1-0.5-1.8-0.5c-0.2,0-0.4,0-0.6,0.1c-0.1,0.1-0.2,0.2-0.3,0.3
					c-0.1,0.1-0.1,0.3-0.1,0.5c0,0.2,0,0.4,0,0.6V148.9z"/>
				<path fill="#616161" d="M286.3,146.7c0.5,0,0.9,0.1,1.3,0.3c0.4,0.2,0.7,0.4,1,0.7c0.3,0.3,0.5,0.6,0.7,1
					c0.2,0.4,0.3,0.8,0.3,1.3c0,0.5-0.1,1-0.3,1.4c-0.2,0.4-0.4,0.8-0.7,1.1c-0.3,0.3-0.6,0.6-1,0.8c-0.4,0.2-0.8,0.3-1.3,0.3
					c-0.5,0-0.9-0.1-1.3-0.2c-0.4-0.2-0.7-0.4-1-0.7c-0.3-0.3-0.5-0.6-0.7-1c-0.2-0.4-0.3-0.8-0.3-1.3c0-0.5,0.1-1,0.3-1.4
					c0.2-0.4,0.4-0.8,0.7-1.1c0.3-0.3,0.6-0.6,1-0.8C285.5,146.8,285.9,146.7,286.3,146.7z M286.3,147.2c-0.3,0-0.6,0.1-0.9,0.2
					c-0.2,0.2-0.4,0.4-0.6,0.6c-0.2,0.3-0.3,0.5-0.3,0.9c-0.1,0.3-0.1,0.7-0.1,1c0,0.4,0,0.8,0.1,1.2c0.1,0.4,0.2,0.7,0.4,1
					c0.2,0.3,0.4,0.5,0.6,0.7c0.3,0.2,0.6,0.3,0.9,0.3c0.3,0,0.6-0.1,0.9-0.2c0.2-0.2,0.4-0.4,0.6-0.6c0.1-0.3,0.3-0.5,0.3-0.9
					s0.1-0.7,0.1-1c0-0.4,0-0.8-0.1-1.2c-0.1-0.4-0.2-0.7-0.3-1c-0.2-0.3-0.4-0.5-0.6-0.7C287,147.3,286.7,147.2,286.3,147.2z"/>
				<path fill="#616161" d="M295.2,147.9c-0.1-0.2-0.1-0.3-0.3-0.4c-0.1-0.1-0.2-0.2-0.4-0.2c-0.1-0.1-0.3-0.1-0.4-0.1
					c-0.1,0-0.2,0-0.3,0c-0.3,0-0.6,0.1-0.8,0.2c-0.3,0.1-0.5,0.3-0.7,0.5c-0.2,0.2-0.3,0.5-0.4,0.9c-0.1,0.3-0.2,0.7-0.2,1.2
					c0,0.4,0.1,0.8,0.2,1.2c0.1,0.4,0.3,0.7,0.5,0.9c0.2,0.3,0.4,0.5,0.7,0.6c0.3,0.1,0.6,0.2,0.9,0.2c0.2,0,0.4,0,0.6-0.1
					c0.2-0.1,0.4-0.1,0.6-0.2c0.2-0.1,0.3-0.2,0.5-0.4c0.2-0.1,0.3-0.3,0.4-0.4l0.3,0.3c-0.2,0.3-0.4,0.5-0.6,0.7
					c-0.2,0.2-0.5,0.4-0.7,0.5c-0.2,0.1-0.5,0.2-0.7,0.3c-0.2,0.1-0.5,0.1-0.7,0.1c-0.4,0-0.9-0.1-1.2-0.2c-0.4-0.2-0.7-0.4-1-0.7
					c-0.3-0.3-0.5-0.6-0.7-1.1c-0.2-0.4-0.3-0.9-0.3-1.4c0-0.3,0-0.6,0.1-0.9c0.1-0.3,0.2-0.6,0.3-0.8c0.1-0.3,0.3-0.5,0.5-0.7
					c0.2-0.2,0.4-0.4,0.7-0.6c0.3-0.2,0.5-0.3,0.8-0.4c0.3-0.1,0.6-0.1,0.9-0.1c0.4,0,0.7,0,1,0.1c0.3,0.1,0.6,0.2,0.8,0.4
					c0.2,0.1,0.4,0.3,0.5,0.5c0.1,0.2,0.2,0.4,0.2,0.6c0,0.2-0.1,0.3-0.2,0.5c-0.1,0.1-0.3,0.2-0.4,0.2c-0.1,0-0.2,0-0.3-0.1
					c-0.1,0-0.1-0.1-0.2-0.1c0-0.1-0.1-0.1-0.1-0.2c0-0.1,0-0.1,0-0.2c0-0.1,0-0.2,0-0.3C295.1,148.1,295.1,148,295.2,147.9z"/>
				<path fill="#616161" d="M300.9,146.9h2.4v0.4c-0.2,0-0.4,0.1-0.6,0.2c-0.2,0.1-0.4,0.2-0.6,0.4c-0.2,0.1-0.3,0.3-0.5,0.4
					c-0.1,0.1-0.3,0.3-0.4,0.4l-1,1.1c0.2,0.1,0.3,0.2,0.4,0.3c0.1,0.1,0.2,0.3,0.4,0.4l0.9,1.2c0,0,0.1,0.1,0.1,0.2
					c0.1,0.1,0.1,0.2,0.2,0.3c0.1,0.1,0.2,0.2,0.3,0.3c0.1,0.1,0.2,0.2,0.3,0.3c0.1,0.1,0.2,0.2,0.3,0.2c0.1,0.1,0.2,0.1,0.3,0.1
					v0.4h-1.2c-0.1,0-0.2,0-0.3-0.1c-0.1-0.1-0.2-0.2-0.3-0.3c-0.1-0.1-0.2-0.2-0.3-0.4c-0.1-0.1-0.2-0.3-0.3-0.5
					c-0.3-0.5-0.6-0.9-0.9-1.2c-0.2-0.3-0.4-0.6-0.6-0.8l-0.5,0v1.8c0,0.2,0,0.3,0,0.5c0,0.1,0,0.3,0,0.4l0.8,0v0.5H297v-0.4
					c0.2,0,0.4,0,0.5-0.1c0.1-0.1,0.2-0.2,0.2-0.3c0-0.1,0.1-0.3,0.1-0.5s0-2.5,0-6.8c0-0.1,0-0.3,0-0.4c0-0.1,0-0.3,0-0.5l-0.9,0.1
					V144c0.3,0,0.5,0,0.7,0c0.2,0,0.3,0,0.5-0.1c0.1,0,0.2-0.1,0.3-0.1c0.1,0,0.1-0.1,0.2-0.1h0.4v6.1h0.5l1.6-1.7
					c0.1-0.1,0.3-0.3,0.4-0.4c0.1-0.1,0.2-0.2,0.4-0.3l-0.9,0V146.9z"/>
				<path fill="#616161" d="M313.6,150c0,0.2,0,0.4,0,0.6c0,0.2-0.1,0.5-0.2,0.8c0.1,0.1,0.2,0.2,0.3,0.3c0.1,0.1,0.2,0.2,0.3,0.3
					c0.4,0.4,0.7,0.6,1,0.8c0.3,0.2,0.5,0.2,0.6,0.2v0.4h-1.2c-0.1,0-0.3-0.1-0.5-0.2c-0.3-0.2-0.6-0.4-1.1-0.8
					c-0.1,0.2-0.3,0.3-0.5,0.5c-0.2,0.2-0.4,0.3-0.6,0.4c-0.2,0.1-0.5,0.2-0.8,0.3c-0.3,0.1-0.6,0.1-0.9,0.1c-0.4,0-0.7,0-1.1-0.1
					c-0.4-0.1-0.7-0.2-1-0.4c-0.3-0.2-0.5-0.5-0.7-0.8c-0.2-0.3-0.3-0.7-0.3-1.2c0-0.3,0-0.5,0.1-0.8c0.1-0.2,0.2-0.5,0.4-0.7
					c0.2-0.2,0.4-0.4,0.6-0.6c0.3-0.2,0.5-0.3,0.8-0.5c-0.2-0.2-0.3-0.4-0.5-0.6c-0.1-0.2-0.2-0.4-0.3-0.6c-0.1-0.2-0.1-0.4-0.2-0.6
					c0-0.2-0.1-0.4-0.1-0.6c0-0.3,0.1-0.6,0.2-0.8c0.1-0.3,0.3-0.5,0.5-0.6c0.2-0.2,0.5-0.3,0.8-0.4c0.3-0.1,0.6-0.1,1-0.1
					c0.3,0,0.6,0,0.9,0.1c0.3,0.1,0.5,0.2,0.7,0.4c0.2,0.2,0.3,0.4,0.4,0.6c0.1,0.2,0.2,0.5,0.2,0.7c0,0.2,0,0.5-0.1,0.7
					c-0.1,0.2-0.2,0.4-0.4,0.7c-0.2,0.2-0.4,0.4-0.7,0.6c-0.3,0.2-0.6,0.4-1,0.6c0.2,0.2,0.3,0.4,0.5,0.5c0.2,0.2,0.4,0.4,0.5,0.6
					c0.1,0.1,0.2,0.2,0.3,0.3c0.1,0.1,0.2,0.2,0.3,0.3c0.1,0.1,0.2,0.2,0.4,0.3c0.1,0.1,0.3,0.3,0.4,0.4c0-0.2,0.1-0.3,0.1-0.4
					c0-0.1,0-0.3,0-0.4c0-0.1,0-0.3,0-0.4c0-0.2-0.1-0.3-0.2-0.4c-0.1-0.1-0.2-0.2-0.3-0.3c-0.1-0.1-0.3-0.1-0.5-0.1v-0.4h2.3v0.5
					l-1.1,0c0.1,0.1,0.2,0.3,0.3,0.4C313.6,149.5,313.6,149.7,313.6,150z M312,151.7c-0.6-0.6-1.1-1.1-1.5-1.5
					c-0.4-0.4-0.8-0.8-1.1-1.2c-0.2,0.1-0.4,0.3-0.5,0.4c-0.1,0.2-0.2,0.3-0.3,0.5c-0.1,0.2-0.1,0.4-0.2,0.5c0,0.2-0.1,0.3-0.1,0.5
					c0,0.4,0.1,0.7,0.2,0.9c0.1,0.3,0.3,0.5,0.4,0.6c0.2,0.2,0.4,0.3,0.6,0.4c0.2,0.1,0.5,0.1,0.7,0.1c0.3,0,0.5,0,0.7-0.1
					c0.2,0,0.4-0.1,0.6-0.2c0.2-0.1,0.3-0.2,0.5-0.3c0.1-0.1,0.3-0.3,0.4-0.4C312.3,151.9,312.1,151.8,312,151.7z M309.1,146.1
					c0,0.2,0,0.4,0.1,0.6c0.1,0.2,0.1,0.4,0.2,0.5c0.1,0.2,0.2,0.4,0.3,0.5c0.1,0.2,0.3,0.3,0.4,0.5c0.5-0.3,0.8-0.7,1.1-1.1
					c0.2-0.4,0.3-0.8,0.3-1.2c0-0.2,0-0.4-0.1-0.6c-0.1-0.2-0.1-0.3-0.2-0.5c-0.1-0.1-0.2-0.2-0.4-0.3c-0.2-0.1-0.3-0.1-0.5-0.1
					c-0.2,0-0.3,0-0.5,0.1c-0.2,0.1-0.3,0.2-0.4,0.3c-0.1,0.1-0.2,0.3-0.3,0.5C309.1,145.6,309.1,145.8,309.1,146.1z"/>
				<path fill="#616161" d="M322.1,149.4c-0.1,0-0.3,0-0.4,0c-0.1,0-0.3,0-0.4,0v2.5c0,0.2,0,0.4,0,0.6c0,0.2,0,0.3,0,0.4l0.9-0.1
					v0.6h-2.9V153c0.2,0,0.4-0.1,0.6-0.1c0.1-0.1,0.2-0.2,0.3-0.3c0.1-0.1,0.1-0.3,0.1-0.5c0-0.2,0-0.4,0-0.6v-5.6
					c0-0.2,0-0.3,0-0.5c0-0.2,0-0.3,0-0.4l-0.9,0.1v-0.6c0.5,0,1,0,1.5,0c0.5,0,1,0,1.5,0c0.6,0,1.2,0.1,1.6,0.2
					c0.4,0.1,0.8,0.3,1.1,0.5c0.3,0.2,0.5,0.4,0.6,0.7c0.1,0.3,0.2,0.6,0.2,1c0,0.3,0,0.5-0.1,0.8c-0.1,0.3-0.2,0.5-0.4,0.8
					c-0.2,0.2-0.4,0.4-0.7,0.6c-0.3,0.2-0.7,0.3-1.2,0.4c0.2,0.1,0.3,0.3,0.5,0.5c0.1,0.2,0.3,0.4,0.4,0.7l0.9,1.4
					c0.1,0.2,0.2,0.3,0.3,0.5c0.1,0.2,0.2,0.3,0.3,0.4c0.1,0.1,0.3,0.2,0.4,0.3c0.1,0.1,0.3,0.1,0.5,0.1v0.4H325
					c-0.1-0.1-0.2-0.2-0.3-0.3c-0.1-0.1-0.2-0.2-0.3-0.3c-0.1-0.1-0.2-0.2-0.3-0.4c-0.1-0.1-0.2-0.3-0.3-0.4l-0.9-1.4
					c-0.1-0.1-0.1-0.2-0.2-0.3c-0.1-0.1-0.1-0.2-0.2-0.3c-0.1-0.1-0.1-0.2-0.2-0.3C322.3,149.6,322.2,149.5,322.1,149.4z
					 M321.2,148.9c0.1,0,0.3,0,0.4,0c0.1,0,0.3,0,0.4,0c0.4,0,0.7-0.1,1-0.1c0.3-0.1,0.5-0.2,0.8-0.4c0.2-0.2,0.4-0.4,0.5-0.6
					c0.1-0.3,0.2-0.6,0.2-1c0-0.7-0.2-1.1-0.6-1.5c-0.4-0.3-1-0.5-1.8-0.5c-0.2,0-0.4,0-0.6,0.1c-0.1,0.1-0.2,0.2-0.3,0.3
					c-0.1,0.1-0.1,0.3-0.1,0.5c0,0.2,0,0.4,0,0.6V148.9z"/>
				<path fill="#616161" d="M330.2,146.7c0.5,0,0.9,0.1,1.3,0.3c0.4,0.2,0.7,0.4,1,0.7c0.3,0.3,0.5,0.6,0.7,1
					c0.2,0.4,0.3,0.8,0.3,1.3c0,0.5-0.1,1-0.3,1.4c-0.2,0.4-0.4,0.8-0.7,1.1c-0.3,0.3-0.6,0.6-1,0.8c-0.4,0.2-0.8,0.3-1.3,0.3
					c-0.5,0-0.9-0.1-1.3-0.2c-0.4-0.2-0.7-0.4-1-0.7c-0.3-0.3-0.5-0.6-0.7-1c-0.2-0.4-0.3-0.8-0.3-1.3c0-0.5,0.1-1,0.3-1.4
					c0.2-0.4,0.4-0.8,0.7-1.1c0.3-0.3,0.6-0.6,1-0.8C329.3,146.8,329.7,146.7,330.2,146.7z M330.2,147.2c-0.3,0-0.6,0.1-0.9,0.2
					c-0.2,0.2-0.4,0.4-0.6,0.6c-0.2,0.3-0.3,0.5-0.3,0.9c-0.1,0.3-0.1,0.7-0.1,1c0,0.4,0,0.8,0.1,1.2c0.1,0.4,0.2,0.7,0.4,1
					c0.2,0.3,0.4,0.5,0.6,0.7c0.3,0.2,0.6,0.3,0.9,0.3c0.3,0,0.6-0.1,0.9-0.2c0.2-0.2,0.4-0.4,0.6-0.6c0.1-0.3,0.3-0.5,0.3-0.9
					s0.1-0.7,0.1-1c0-0.4,0-0.8-0.1-1.2c-0.1-0.4-0.2-0.7-0.3-1c-0.2-0.3-0.4-0.5-0.6-0.7C330.8,147.3,330.5,147.2,330.2,147.2z"/>
				<path fill="#616161" d="M334.9,145.3c0-0.1,0-0.3,0-0.4c0-0.1,0-0.3,0-0.5l-0.9,0.1V144c0.3,0,0.5,0,0.7,0c0.2,0,0.3,0,0.5-0.1
					c0.1,0,0.2-0.1,0.3-0.1c0.1,0,0.1-0.1,0.2-0.1h0.4l0,8.4c0,0.2,0,0.3,0,0.5c0,0.1,0,0.3-0.1,0.4l0.8,0v0.5h-2.7v-0.4
					c0.2,0,0.4,0,0.5-0.1c0.1-0.1,0.2-0.2,0.2-0.3c0-0.1,0.1-0.3,0.1-0.5c0-0.2,0-0.4,0-0.6V145.3z"/>
				<path fill="#616161" d="M338.2,145.3c0-0.1,0-0.3,0-0.4c0-0.1,0-0.3,0-0.5l-0.9,0.1V144c0.3,0,0.5,0,0.7,0c0.2,0,0.3,0,0.5-0.1
					c0.1,0,0.2-0.1,0.3-0.1c0.1,0,0.1-0.1,0.2-0.1h0.4l0,8.4c0,0.2,0,0.3,0,0.5c0,0.1,0,0.3-0.1,0.4l0.8,0v0.5h-2.7v-0.4
					c0.2,0,0.4,0,0.5-0.1c0.1-0.1,0.2-0.2,0.2-0.3c0-0.1,0.1-0.3,0.1-0.5c0-0.2,0-0.4,0-0.6V145.3z"/>
			</g>
		</g>
		<g>
			<g>
				<path fill="#FFFFFF" d="M228.8,166.4h-3.6c-0.4,0-0.6,0-0.8,0.1c-0.1,0.1-0.3,0.3-0.4,0.7h-0.9l1-3.2h0.9c0,0.1,0,0.1,0,0.2
					c0,0.2,0.1,0.3,0.4,0.3h4.9l-3,9.4c-0.2,0.6-0.4,1-0.6,1.2c-0.2,0.2-0.4,0.3-0.8,0.3c-0.3,0-0.6-0.1-0.8-0.3
					c-0.2-0.2-0.3-0.4-0.3-0.7c0-0.3,0.2-0.7,0.6-1.5L228.8,166.4z"/>
				<path fill="#FFFFFF" d="M232.5,169.7l0.2-5.3h5.3c-0.2,0.6-0.4,1-0.6,1.3c-0.1,0.2-0.3,0.4-0.3,0.4c-0.1,0-0.3,0-0.7,0h-2.9
					l-0.1,2.5c0.5-0.4,1.1-0.6,1.9-0.6c0.9,0,1.7,0.3,2.4,0.9c0.7,0.6,1.1,1.5,1.1,2.6c0,1.2-0.4,2.2-1.3,2.9c-0.9,0.7-1.9,1-3.1,1
					c-0.8,0-1.5-0.2-2-0.5c-0.5-0.3-0.8-0.7-0.8-1.2c0-0.3,0.1-0.5,0.3-0.6c0.2-0.2,0.4-0.3,0.7-0.3c0.4,0,0.7,0.3,1,0.8
					c0.3,0.6,0.7,0.9,1.2,0.9c0.5,0,0.8-0.2,1.1-0.6c0.2-0.4,0.4-1.2,0.4-2.4c0-0.9-0.1-1.6-0.3-1.9c-0.2-0.4-0.6-0.6-1.1-0.6
					c-0.5,0-0.9,0.3-1.2,0.8H232.5z"/>
				<path fill="#FFFFFF" d="M241,167.1c0-0.9,0.2-1.6,0.7-2.1c0.5-0.5,1.1-0.8,1.9-0.8c0.9,0,1.6,0.3,2,0.8c0.4,0.5,0.7,1.2,0.7,2
					c0,0.8-0.2,1.5-0.7,2c-0.5,0.5-1.1,0.8-1.8,0.8c-0.9,0-1.6-0.3-2-0.8C241.2,168.5,241,167.9,241,167.1z M242.9,167
					c0,1,0,1.6,0.1,1.9c0.1,0.3,0.3,0.4,0.5,0.4c0.2,0,0.4-0.2,0.5-0.5c0.1-0.3,0.2-0.8,0.2-1.5c0-1,0-1.6-0.1-2
					c-0.1-0.4-0.3-0.6-0.5-0.6c-0.2,0-0.4,0.1-0.5,0.4C243,165.5,242.9,166.1,242.9,167z M244.4,175l5.4-10.6h1.1l-5.4,10.6H244.4z
					 M248.9,172.5c0-0.9,0.2-1.6,0.7-2.1c0.5-0.5,1.1-0.8,1.9-0.8c0.9,0,1.6,0.3,2,0.8c0.4,0.5,0.7,1.2,0.7,2c0,0.8-0.2,1.5-0.7,2
					c-0.5,0.5-1.1,0.8-1.8,0.8c-0.9,0-1.6-0.3-2-0.8C249.2,173.9,248.9,173.3,248.9,172.5z M250.9,172.4c0,1,0.1,1.6,0.2,1.9
					c0.1,0.3,0.3,0.4,0.5,0.4c0.2,0,0.4-0.2,0.5-0.5c0.1-0.3,0.2-0.8,0.2-1.5c0-1,0-1.6-0.1-2c-0.1-0.4-0.3-0.6-0.5-0.6
					c-0.2,0-0.4,0.1-0.5,0.4C251,170.9,250.9,171.5,250.9,172.4z"/>
			</g>
		</g>
	</g>
	<g>
		<path fill="#BCBDC0" d="M57.6,73.9H42.2c-0.6,0-1.1-0.1-1.5-0.4c-0.4-0.3-0.6-0.8-0.6-1.4c0-0.4,0.1-0.7,0.3-1
			c0.2-0.3,0.4-0.5,0.7-0.6c0.2-0.1,0.5-0.3,0.8-0.4c0.3-0.1,0.5-0.2,0.8-0.3c0.4-0.1,0.7-0.2,1-0.3c0.3-0.1,0.5-0.3,0.5-0.6V33.5
			c0-0.3-0.2-0.5-0.5-0.6c-0.3-0.1-0.7-0.2-1-0.3c-0.2-0.1-0.5-0.2-0.8-0.3c-0.3-0.1-0.5-0.2-0.8-0.4c-0.2-0.1-0.4-0.3-0.7-0.6
			c-0.2-0.3-0.3-0.6-0.3-1c0-0.7,0.2-1.2,0.7-1.4c0.5-0.3,1-0.4,1.5-0.4h15.3c6.6,0,11.5,1.9,14.8,5.8c3.2,3.8,4.9,9.5,4.9,17
			s-1.6,13.1-4.9,17C69.1,72,64.2,73.9,57.6,73.9z M57.6,33.3h-6c-0.3,0-0.5,0.1-0.5,0.4v34.8c0,0.2,0,0.4,0.1,0.4
			c0,0.1,0.2,0.1,0.5,0.1h5.9c3.8,0,6.8-1.4,8.9-4.3c2.2-2.9,3.3-7.4,3.3-13.5c0-6.1-1.1-10.6-3.3-13.5
			C64.3,34.8,61.3,33.3,57.6,33.3z"/>
		<path fill="#BCBDC0" d="M96.7,73.9H86c-0.5,0-1.1-0.1-1.5-0.4c-0.5-0.3-0.7-0.8-0.7-1.4c0-0.7,0.3-1.2,0.8-1.5
			c0.5-0.3,1.1-0.6,1.8-0.8c0.2-0.1,0.4-0.2,0.6-0.2c0.2,0,0.4-0.1,0.6-0.2c0.2-0.1,0.3-0.3,0.3-0.3V33.3c0-0.1-0.1-0.1-0.3-0.1
			c-0.4-0.2-0.8-0.4-1.2-0.5c-0.7-0.2-1.3-0.5-1.8-0.9c-0.5-0.4-0.8-0.8-0.8-1.3c0-0.7,0.2-1.2,0.7-1.4c0.5-0.3,1-0.4,1.6-0.4h10.6
			c0.5,0,1.1,0.1,1.5,0.4c0.5,0.3,0.7,0.8,0.7,1.4c0,0.6-0.3,1.1-0.9,1.5c-0.6,0.4-1.2,0.6-1.8,0.8c-0.6,0.1-1,0.2-1.2,0.4
			c-0.1,0.2-0.2,0.3-0.2,0.4v35.5c0,0.3,0.1,0.5,0.4,0.6c0.3,0.1,0.6,0.1,1,0.2c0.3,0.1,0.5,0.2,0.8,0.3c0.3,0.1,0.5,0.2,0.8,0.3
			c0.3,0.2,0.5,0.4,0.7,0.7c0.2,0.3,0.3,0.7,0.3,1.1c0,0.6-0.3,1.1-0.7,1.4C97.8,73.8,97.3,73.9,96.7,73.9z"/>
		<path fill="#BCBDC0" d="M119.4,74.4c-1.8,0-3.8-0.2-6-0.7c-2.2-0.5-4.6-1.3-7.3-2.4l-0.5-6.9v-0.3c0-0.5,0.1-0.9,0.3-1.3
			c0.3-0.4,0.7-0.6,1.4-0.6c1.3,0,2.2,0.6,2.7,1.8l0.8,2.4c0.8,0.7,1.8,1.4,3.2,2c1.3,0.6,3,0.9,5,0.9c2.7,0,4.7-0.7,6-2
			c1.3-1.3,1.9-3.3,1.9-5.9c0-1.2-0.7-2.5-2-3.8c-1.3-1.4-3.7-2.8-7.2-4.2c-3.5-1.5-6.3-3.3-8.5-5.4c-2.1-2.1-3.2-4.7-3.2-7.7
			c0-1.9,0.4-3.6,1.1-5.1c0.7-1.5,1.7-2.8,2.9-3.8c1.3-1,2.7-1.8,4.4-2.4c1.7-0.5,3.5-0.8,5.4-0.8c1.7,0,3.4,0.2,5.3,0.7
			c1.8,0.5,3.8,1.2,6,2.3l0.6,6.8c0,0.6-0.1,1.2-0.4,1.6c-0.3,0.4-0.8,0.7-1.7,0.7c-0.6,0-1.1-0.2-1.5-0.6c-0.4-0.4-0.6-0.8-0.8-1.3
			l-0.8-2.4c-0.8-0.7-1.7-1.3-2.7-1.8c-1.1-0.5-2.3-0.8-3.8-0.8c-2.4,0-4.2,0.6-5.3,1.7c-1.1,1.2-1.6,2.7-1.6,4.6
			c0,1.5,0.7,2.9,2.2,4.4c1.5,1.5,4,2.9,7.5,4.3c3.6,1.5,6.3,3.2,8.2,5.2c1.9,2,2.9,4.4,2.9,7.4c0,2.3-0.4,4.3-1.1,6.1
			s-1.8,3.1-3.1,4.2c-1.3,1.1-2.8,1.9-4.6,2.5C123.3,74.1,121.4,74.4,119.4,74.4z"/>
		<path fill="#BCBDC0" d="M51.5,90.6c-0.5,0-1-0.2-1.3-0.5c-0.3-0.3-0.6-0.7-0.8-1.1c0-0.1-0.1-0.3-0.1-0.4c0-0.1-0.1-0.2-0.1-0.4
			c-0.1-0.3-0.3-0.6-0.4-1c-0.1-0.3-0.3-0.5-0.7-0.5H30.6c-0.5,0-0.7,0.2-0.7,0.5v14.2c0,0.3,0.2,0.4,0.6,0.4h7.7
			c0.3,0,0.4-0.1,0.5-0.4c0.1-0.3,0.2-0.6,0.3-1c0.3-0.6,0.6-1.2,1-1.7c0.4-0.5,0.9-0.8,1.4-0.8c0.6,0,1.1,0.2,1.4,0.6
			c0.3,0.4,0.5,0.9,0.5,1.5v8.6c0,0.5-0.2,1-0.5,1.4c-0.3,0.4-0.8,0.6-1.4,0.6c-0.7,0-1.2-0.3-1.5-0.9c-0.3-0.6-0.6-1.1-0.9-1.6
			c-0.1-0.3-0.3-0.6-0.3-1c-0.1-0.3-0.3-0.5-0.5-0.5h-7.7c-0.3,0-0.4,0-0.5,0.1c0,0.1-0.1,0.2-0.1,0.4v15.2c0,0.3,0.1,0.5,0.4,0.5
			c0.3,0.1,0.6,0.2,1,0.3c0.3,0.1,0.5,0.2,0.8,0.3c0.3,0.1,0.5,0.2,0.8,0.4c0.2,0.2,0.5,0.4,0.7,0.7c0.2,0.3,0.3,0.6,0.3,0.9
			c0,0.7-0.2,1.2-0.7,1.4c-0.5,0.3-1,0.4-1.5,0.4H21.1c-0.6,0-1.1-0.1-1.6-0.4c-0.5-0.3-0.7-0.8-0.7-1.4c0-0.6,0.3-1.1,0.9-1.4
			c0.6-0.3,1.1-0.6,1.6-0.8c0.3-0.1,0.7-0.3,1-0.3c0.3-0.1,0.5-0.3,0.5-0.5V86.8c0,0-0.1-0.1-0.3-0.2c-0.4-0.2-0.8-0.4-1.2-0.5
			c-0.7-0.2-1.3-0.5-1.8-0.9c-0.5-0.4-0.8-0.8-0.8-1.3c0-0.6,0.2-1.1,0.6-1.4c0.4-0.3,0.9-0.4,1.5-0.4h30.5c0.6,0,1.1,0.2,1.4,0.6
			c0.3,0.4,0.5,0.9,0.5,1.4v4.6c0,0.5-0.1,1-0.4,1.4C52.6,90.4,52.1,90.6,51.5,90.6z"/>
		<path fill="#BCBDC0" d="M77.6,106.7l0.1,0.1l9.5,15.4c0.2,0.3,0.5,0.6,0.9,0.7c0.4,0.2,0.7,0.3,1.1,0.4c0.6,0.2,1.2,0.5,1.6,0.9
			c0.4,0.3,0.6,0.8,0.6,1.3c0,0.7-0.2,1.2-0.7,1.4c-0.5,0.3-1,0.4-1.6,0.4h-4c-1.2,0-2.1-0.5-2.9-1.6l-10.6-17.5
			c-0.3-0.5-0.6-0.7-1-0.7h-2c-0.3,0-0.5,0.1-0.5,0.3v14.5c0,0.1,0.1,0.2,0.2,0.4c0.1,0.2,0.5,0.3,1.2,0.4c0.6,0.2,1.2,0.5,1.8,0.8
			c0.6,0.4,0.9,0.9,0.9,1.5c0,0.6-0.2,1.1-0.7,1.4c-0.4,0.3-0.9,0.4-1.5,0.4H59.1c-0.5,0-1.1-0.1-1.5-0.4c-0.5-0.3-0.7-0.8-0.7-1.4
			c0-0.4,0.1-0.7,0.3-1c0.2-0.3,0.4-0.5,0.7-0.6c0.2-0.1,0.5-0.3,0.7-0.4c0.3-0.1,0.5-0.2,0.8-0.3c0.4-0.1,0.7-0.2,1-0.3
			c0.3-0.1,0.5-0.3,0.5-0.6V86.8c0-0.3-0.2-0.4-0.5-0.5c-0.3-0.1-0.7-0.2-1-0.3c-0.3-0.1-0.5-0.2-0.8-0.3c-0.3-0.1-0.5-0.2-0.8-0.4
			c-0.2-0.1-0.4-0.3-0.7-0.6c-0.2-0.3-0.3-0.6-0.3-1c0-0.7,0.2-1.2,0.7-1.4c0.5-0.3,1-0.4,1.5-0.4h14c2.3,0,4.5,0.3,6.4,0.8
			c1.9,0.5,3.6,1.3,4.9,2.4c1.4,1.1,2.4,2.4,3.2,3.9c0.8,1.6,1.1,3.4,1.1,5.5c0,1.7-0.4,3.3-1.1,4.8c-0.7,1.5-1.6,2.8-2.7,3.9
			c-1.1,1.1-2.3,2-3.6,2.6C80,106.4,78.8,106.8,77.6,106.7C77.6,106.7,77.6,106.7,77.6,106.7z M72.2,86.9l-3.5-0.1
			c-0.5,0-0.7,0.1-0.7,0.4v15.1c0,0.2,0,0.3,0,0.3c0,0,0.1,0.1,0.4,0.1l3.8-0.1c3.3-0.1,5.7-0.8,7.2-2c1.5-1.2,2.2-3.2,2.2-5.9
			c0-2.6-0.8-4.5-2.2-5.8C77.9,87.7,75.5,87,72.2,86.9z"/>
		<path fill="#BCBDC0" d="M134.5,85.3c-0.2,0.1-0.5,0.3-0.8,0.4c-0.3,0.1-0.5,0.2-0.8,0.3c-0.4,0.1-0.7,0.3-1,0.3
			c-0.3,0.1-0.4,0.3-0.4,0.5v24.9c0,2.6-0.4,4.9-1.2,6.8c-0.8,1.9-1.9,3.6-3.4,4.9c-1.4,1.3-3.2,2.3-5.2,2.9c-2,0.7-4.2,1-6.6,1
			c-4.7,0-8.3-1.4-10.9-4.1c-2.6-2.7-3.9-6.8-3.9-12.2V86.9c0-0.3-0.2-0.5-0.5-0.6c-0.3-0.1-0.7-0.2-1-0.3c-0.3-0.1-0.5-0.2-0.8-0.3
			c-0.3-0.1-0.5-0.2-0.7-0.4c-0.3-0.1-0.5-0.3-0.7-0.6c-0.2-0.3-0.3-0.6-0.3-1c0-0.7,0.2-1.2,0.7-1.4c0.5-0.3,1-0.4,1.5-0.4h10.7
			c0.6,0,1.1,0.1,1.5,0.4c0.4,0.3,0.7,0.8,0.7,1.4c0,0.4-0.1,0.7-0.3,1c-0.2,0.3-0.5,0.5-0.8,0.6c-0.2,0.1-0.5,0.3-0.7,0.4
			c-0.3,0.1-0.5,0.2-0.8,0.3c-0.4,0.1-0.7,0.2-1,0.3c-0.3,0.1-0.4,0.3-0.4,0.6v25.5c0,3.3,0.8,5.8,2.3,7.3c1.5,1.6,3.9,2.3,7.2,2.2
			c3.2-0.1,5.5-0.9,6.8-2.5c1.4-1.6,2-3.9,2-6.9V86.9c0-0.3-0.2-0.5-0.5-0.5c-0.3-0.1-0.7-0.2-1-0.3c-0.2-0.1-0.5-0.2-0.8-0.3
			c-0.3-0.1-0.5-0.2-0.8-0.4c-0.2-0.1-0.5-0.3-0.7-0.5c-0.2-0.2-0.4-0.5-0.4-1c0-0.7,0.2-1.2,0.7-1.5c0.4-0.3,0.9-0.4,1.5-0.4
			l9.4,0.1c0.6,0,1.1,0.1,1.5,0.4c0.4,0.3,0.7,0.7,0.7,1.4c0,0.4-0.1,0.7-0.3,1C134.9,85,134.7,85.2,134.5,85.3z"/>
		<path fill="#BCBDC0" d="M88.7,144.3c-0.5,0-1-0.2-1.3-0.5c-0.3-0.3-0.6-0.7-0.8-1.2c-0.1-0.1-0.1-0.2-0.2-0.3
			c0-0.1-0.1-0.2-0.2-0.3c-0.1-0.3-0.3-0.6-0.3-1c-0.1-0.3-0.3-0.5-0.6-0.5h-7.7c-0.3,0-0.4,0.2-0.4,0.5v35c0,0.2,0.1,0.4,0.2,0.5
			c0.1,0.2,0.5,0.3,1.2,0.4c0.9,0.3,1.6,0.7,2,1.1c0.4,0.4,0.7,0.8,0.7,1.2c0,0.7-0.2,1.2-0.7,1.4c-0.5,0.3-1,0.4-1.5,0.4H68.2
			c-0.6,0-1.1-0.1-1.5-0.4c-0.4-0.3-0.6-0.8-0.6-1.4c0-0.6,0.3-1.1,0.9-1.4c0.6-0.3,1.1-0.6,1.6-0.8c0.4-0.1,0.7-0.3,1-0.3
			c0.3-0.1,0.5-0.3,0.5-0.6V141c0-0.2,0-0.4-0.1-0.4c-0.1-0.1-0.2-0.1-0.5-0.1h-8.4c-0.3,0-0.5,0.2-0.6,0.5c-0.1,0.3-0.2,0.6-0.3,1
			c-0.1,0.2-0.2,0.5-0.3,0.7c-0.1,0.3-0.3,0.5-0.4,0.7c-0.1,0.2-0.3,0.4-0.6,0.6c-0.3,0.2-0.6,0.3-1,0.3c-0.6,0-1.1-0.2-1.4-0.6
			c-0.3-0.4-0.5-0.9-0.5-1.4v-4.6c0-0.7,0.2-1.2,0.7-1.5c0.4-0.3,1-0.5,1.7-0.5h30.1c1.4,0,2.1,0.7,2.1,2.1l0.1,4.6
			c0,0.6-0.1,1.1-0.4,1.5C89.8,144.1,89.3,144.3,88.7,144.3z"/>
		<path fill="#BCBDC0" d="M114.5,181.3h-0.9c-6.3,0-11-2-14.1-5.9c-3.1-3.9-4.7-9.6-4.7-17.1c0-7.5,1.6-13.2,4.7-17.1
			c3.1-3.9,7.8-5.9,14.1-5.9h0.9c6.3,0,11,2,14.1,5.9c3.2,3.9,4.7,9.6,4.7,17.1c0,7.5-1.6,13.2-4.7,17.1
			C125.5,179.3,120.8,181.3,114.5,181.3z M114.1,140.2c-3.6,0.3-6.5,2-8.8,5c-2.3,3-3.4,7.4-3.4,13.2c0,2.9,0.3,5.5,0.9,7.7
			c0.6,2.2,1.4,4,2.5,5.5c1.1,1.5,2.4,2.7,3.9,3.5c1.5,0.8,3.1,1.3,4.9,1.4c1.8-0.1,3.4-0.6,4.9-1.4c1.5-0.8,2.8-2,3.8-3.5
			c1.1-1.5,1.9-3.4,2.5-5.5c0.6-2.2,0.9-4.7,0.9-7.7c0-2.9-0.3-5.5-0.9-7.7c-0.6-2.2-1.5-4-2.5-5.5c-1.1-1.5-2.4-2.7-3.8-3.5
			C117.5,140.8,115.9,140.3,114.1,140.2z"/>
	</g>
</g>
</svg>
