<?xml version="1.0" encoding="utf-8"?>
<!-- Generator: Adobe Illustrator 17.0.0, SVG Export Plug-In . SVG Version: 6.00 Build 0)  -->
<!DOCTYPE svg PUBLIC "-//W3C//DTD SVG 1.1//EN" "http://www.w3.org/Graphics/SVG/1.1/DTD/svg11.dtd">
<svg version="1.1" id="Capa_1" xmlns="http://www.w3.org/2000/svg" xmlns:xlink="http://www.w3.org/1999/xlink" x="0px" y="0px"
	 width="216px" height="69px" viewBox="0 0 216 69" enable-background="new 0 0 216 69" xml:space="preserve">
<g>
	<defs>
		<rect id="SVGID_1_" x="0.45" y="0.44" width="215.1" height="44.42"/>
	</defs>
	<clipPath id="SVGID_2_">
		<use xlink:href="#SVGID_1_"  overflow="visible"/>
	</clipPath>
	<g clip-path="url(#SVGID_2_)">
		<defs>
			<rect id="SVGID_3_" x="0.45" y="0.44" width="215.1" height="44.42"/>
		</defs>
		<clipPath id="SVGID_4_">
			<use xlink:href="#SVGID_3_"  overflow="visible"/>
		</clipPath>
		<path clip-path="url(#SVGID_4_)" fill="#FFFFFF" d="M215.14,44.08c0.25,0,0.41,0.031,0.41,0.161c0,0.169-0.37,0.229-0.83,0.229
			c-0.62,0-3.67,0-6.55-0.06c-0.79-0.03-1.25-0.03-1.25-0.19c0-0.109,0.13-0.17,0.3-0.2c0.25-0.05,0.5-0.31,0.25-0.75l-3.88-6.869
			c-0.09-0.12-0.17-0.17-0.38-0.17h-8.96c-0.21,0-0.34,0.079-0.42,0.219l-2.5,4.951c-0.38,0.689-0.58,1.359-0.58,1.869
			c0,0.56,0.87,0.81,1.58,0.81h0.42c0.29,0,0.41,0.05,0.41,0.161c0,0.169-0.25,0.229-0.62,0.229c-1,0-2.8-0.09-3.25-0.09
			c-0.46,0-2.76,0.09-4.72,0.09c-0.54,0-0.79-0.06-0.79-0.229c0-0.111,0.17-0.161,0.38-0.161c0.29,0,0.87-0.03,1.21-0.06
			c1.91-0.17,2.75-1.23,3.5-2.619l9.46-17.351c0.5-0.92,0.67-1.09,0.92-1.09s0.42,0.14,0.92,1.01c0.62,1.061,7.17,12.59,9.71,16.84
			c1.5,2.48,2.71,2.931,3.59,3.1C214.1,44.05,214.72,44.08,215.14,44.08 M202.67,35.22c0.21,0,0.21-0.08,0.17-0.189l-3.96-7.54
			c-0.21-0.42-0.42-0.42-0.63,0l-3.67,7.54c-0.08,0.139,0,0.189,0.13,0.189H202.67z"/>
		<path clip-path="url(#SVGID_4_)" fill="#FFFFFF" d="M177.03,23.55c0,0.11-0.17,0.19-0.46,0.19c-0.21,0-0.5,0-1,0.09
			c-1.37,0.19-1.54,0.81-1.54,2.48l-0.08,16.37c0,1.84-0.09,1.98-0.38,1.98c-0.34,0-0.84-0.299-3.06-1.78
			c-0.46-0.28-6.45-4.39-10.86-7.57c-4.83-3.5-9.54-7.02-10.87-8.02l0.54,13.38c0.09,2.29,0.5,3.021,1.63,3.24
			c0.79,0.14,1.71,0.17,2.08,0.17c0.21,0,0.34,0.05,0.34,0.16c0,0.17-0.25,0.23-0.75,0.23c-2.38,0-4.05-0.09-4.43-0.09
			s-2.14,0.09-4.01,0.09c-0.42,0-0.67-0.029-0.67-0.23c0-0.11,0.12-0.16,0.33-0.16c0.34,0,1.09-0.03,1.71-0.17
			c1.04-0.2,1.25-1.009,1.25-3.549l0.05-16c0-1.091,0.12-1.401,0.46-1.401c0.33,0,1.05,0.62,1.47,0.89
			c0.62,0.48,6.83,4.98,13.24,9.591c4.12,2.96,8.66,6.359,9.99,7.279l-0.46-14.18c-0.04-1.82-0.33-2.429-1.62-2.66
			c-0.75-0.11-1.71-0.14-2.04-0.14c-0.29,0-0.34-0.08-0.34-0.19c0-0.17,0.34-0.2,0.84-0.2c1.87,0,3.87,0.08,4.34,0.08
			c0.46,0,1.84-0.08,3.55-0.08C176.74,23.35,177.03,23.38,177.03,23.55"/>
		<path clip-path="url(#SVGID_4_)" fill="#FFFFFF" d="M166.68,7.2c0.11,0,0.11,0.08,0.11,0.189c0,0.25-0.11,0.981-0.18,1.201
			c-0.09,0.28-0.21,0.28-0.73,0.28c-2.05,0-2.95-0.07-3.75-0.07c-0.31,0-1.17,0.03-1.71,0.03c-0.18,0-0.27-0.03-0.27-0.1
			c0-0.06,0.05-0.091,0.22-0.091c0.2,0,0.36-0.019,0.48-0.04c0.27-0.049,0.34-0.279,0.4-0.599c0.06-0.45,0.06-1.3,0.06-2.29V3.809
			c0-1.639,0-1.939-0.02-2.29c-0.03-0.369-0.14-0.539-0.59-0.619c-0.1-0.02-0.33-0.03-0.52-0.03c-0.15,0-0.23-0.021-0.23-0.09
			c0-0.08,0.09-0.101,0.29-0.101c0.72,0,1.58,0.031,1.96,0.031c0.43,0,3.13,0,3.38-0.01c0.26-0.021,0.48-0.04,0.59-0.07
			c0.06-0.01,0.14-0.04,0.21-0.04s0.08,0.04,0.08,0.1c0,0.07-0.06,0.199-0.1,0.699c-0.02,0.111-0.05,0.581-0.07,0.71
			c-0.02,0.061-0.04,0.121-0.14,0.121c-0.09,0-0.12-0.05-0.12-0.15c0-0.08-0.01-0.261-0.08-0.391c-0.1-0.189-0.23-0.319-0.91-0.389
			c-0.23-0.021-1.65-0.04-1.92-0.04c-0.07,0-0.1,0.03-0.1,0.11v2.73c0,0.07,0.01,0.12,0.1,0.12c0.29,0,1.85,0,2.17-0.031
			c0.32-0.019,0.52-0.049,0.64-0.16c0.1-0.079,0.15-0.139,0.22-0.139c0.06,0,0.1,0.02,0.1,0.09c0,0.06-0.07,0.24-0.11,0.79
			c-0.03,0.21-0.06,0.64-0.06,0.72c0,0.09,0,0.21-0.12,0.21c-0.09,0-0.12-0.051-0.12-0.1c-0.01-0.11-0.01-0.25-0.05-0.39
			c-0.07-0.22-0.26-0.38-0.76-0.42c-0.26-0.02-1.6-0.03-1.93-0.03c-0.07,0-0.08,0.04-0.08,0.099V5.71c0,0.36-0.01,1.36,0,1.67
			c0.03,0.74,0.25,0.91,1.63,0.91c0.35,0,0.92,0,1.27-0.13c0.35-0.13,0.52-0.36,0.61-0.8C166.56,7.24,166.59,7.2,166.68,7.2"/>
		<path clip-path="url(#SVGID_4_)" fill="#FFFFFF" d="M154.78,1.91c0.68,0.559,1.31,1.46,1.31,2.74c0,1.359-0.71,2.39-1.47,3.01
			c-0.63,0.51-2.04,1.269-4.54,1.269c-0.99,0-2.21-0.13-2.89-0.13c-0.31,0-1.16,0.031-1.71,0.031c-0.17,0-0.27-0.031-0.27-0.1
			c0-0.06,0.06-0.091,0.22-0.091c0.2,0,0.36-0.019,0.49-0.04c0.27-0.05,0.34-0.279,0.39-0.599c0.07-0.451,0.07-1.3,0.07-2.29V3.809
			c0-1.639,0-1.939-0.03-2.29c-0.03-0.369-0.14-0.539-0.58-0.619c-0.11-0.021-0.34-0.03-0.53-0.03c-0.15,0-0.23-0.021-0.23-0.09
			c0-0.08,0.09-0.101,0.3-0.101c0.72,0,1.57,0.031,1.95,0.031c0.42,0,1.27-0.031,2.09-0.031C151.04,0.679,153.3,0.679,154.78,1.91
			 M153.14,7.65c0.87-0.601,1.14-1.58,1.14-2.69c0-1.371-0.72-2.25-1.3-2.701c-1.25-0.95-2.79-1.069-3.85-1.069
			c-0.27,0-0.77,0.029-0.88,0.069c-0.13,0.04-0.17,0.101-0.17,0.221c-0.01,0.359-0.01,1.3-0.01,2.149V4.99
			c0,1.149,0.01,1.979,0.03,2.18c0.01,0.27,0.04,0.709,0.15,0.82c0.17,0.21,0.7,0.439,1.77,0.439
			C151.41,8.429,152.33,8.21,153.14,7.65"/>
		<path clip-path="url(#SVGID_4_)" fill="#FFFFFF" d="M129.09,0.53c3.38,0,5.48,1.56,5.48,4.03c0,2.47-2.17,4.43-5.61,4.43
			c-3.89,0-5.46-2.32-5.46-4.23C123.5,2.91,125.03,0.53,129.09,0.53 M132.67,4.96c0-2.42-1.75-3.92-3.97-3.92
			c-1.56,0-3.33,0.7-3.33,3.38c0,2.25,1.55,4.03,4.16,4.03C130.48,8.45,132.67,8.08,132.67,4.96"/>
		<path clip-path="url(#SVGID_4_)" fill="#FFFFFF" d="M132.37,44.08c0.25,0,0.33,0.08,0.33,0.16c0,0.14-0.21,0.23-0.67,0.23
			c-2.29,0-4.92-0.09-5.13-0.09c-0.2,0-2.83,0.09-4.08,0.09c-0.46,0-0.67-0.06-0.67-0.23c0-0.08,0.09-0.16,0.34-0.16
			c0.37,0,0.87-0.061,1.25-0.11c0.83-0.12,1.04-0.73,1.21-1.54c0.2-1.17,0.2-3.38,0.2-6.06v-4.92c0-4.36,0-5.141-0.08-6.03
			c-0.08-0.95-0.5-1.43-1.42-1.57c-0.46-0.081-1-0.11-1.29-0.11c-0.17,0-0.33-0.05-0.33-0.16c0-0.17,0.21-0.23,0.66-0.23
			c1.38,0,4.01,0.09,4.21,0.09c0.21,0,2.84-0.09,4.09-0.09c0.46,0,0.67,0.06,0.67,0.23c0,0.11-0.17,0.16-0.34,0.16
			c-0.29,0-0.54,0.029-1.04,0.09c-1.12,0.14-1.46,0.61-1.54,1.59c-0.08,0.889-0.08,1.67-0.08,6.03v4.92c0,2.68,0,4.89,0.2,6.06
			c0.13,0.81,0.38,1.42,1.63,1.54C131.07,44.019,131.99,44.08,132.37,44.08"/>
		<path clip-path="url(#SVGID_4_)" fill="#FFFFFF" d="M120.16,7.15c0.09,0,0.1,0.06,0.1,0.189c0,0.111-0.09,0.92-0.2,1.241
			c-0.08,0.229-0.15,0.29-0.85,0.29c-1.95,0-2.85-0.071-3.95-0.071c-0.31,0-1.16,0.04-1.7,0.04c-0.18,0-0.27-0.04-0.27-0.109
			c0-0.06,0.05-0.091,0.21-0.091c0.21,0,0.37-0.019,0.49-0.04c0.27-0.05,0.34-0.279,0.39-0.599c0.07-0.451,0.07-1.3,0.07-2.29V3.809
			c0-1.639,0-1.939-0.03-2.29c-0.02-0.369-0.13-0.539-0.58-0.619c-0.11-0.021-0.27-0.03-0.45-0.03c-0.14,0-0.23-0.021-0.23-0.09
			c0-0.08,0.1-0.101,0.3-0.101c0.64,0,1.49,0.031,1.86,0.031c0.32,0,1.31-0.031,1.84-0.031c0.19,0,0.29,0.021,0.29,0.101
			c0,0.069-0.08,0.09-0.25,0.09c-0.15,0-0.36,0.009-0.53,0.03c-0.36,0.06-0.47,0.239-0.5,0.619c-0.03,0.351-0.03,0.651-0.03,2.29
			V5.71c0,1.379,0,2.12,0.29,2.32c0.23,0.16,0.58,0.229,1.64,0.229c0.72,0,1.25-0.009,1.59-0.299c0.16-0.14,0.32-0.441,0.35-0.651
			C120.02,7.219,120.05,7.15,120.16,7.15"/>
		<path clip-path="url(#SVGID_4_)" fill="#FFFFFF" d="M111.73,40.59c0.21,0,0.25,0.11,0.25,0.41c0,0.31-0.29,1.99-0.63,2.8
			c-0.29,0.641-0.41,0.75-2.63,0.75c-6,0-8.75-0.17-11.17-0.17c-0.38,0-2.84,0.09-4.09,0.09c-0.46,0-0.66-0.06-0.66-0.23
			c0-0.08,0.08-0.16,0.33-0.16c0.38,0,0.88-0.06,1.25-0.11c0.83-0.12,1.04-0.73,1.21-1.54c0.21-1.17,0.21-3.38,0.21-6.06v-4.92
			c0-4.36,0-5.14-0.08-6.03c-0.09-0.95-0.42-1.4-1.8-1.59c-0.33-0.06-1.04-0.09-1.42-0.09c-0.16,0-0.33-0.049-0.33-0.16
			c0-0.17,0.21-0.23,0.67-0.23c1.87,0,4.5,0.091,4.71,0.091c0.21,0,3.25-0.091,4.5-0.091c0.46,0,0.67,0.06,0.67,0.23
			c0,0.111-0.17,0.16-0.33,0.16c-0.29,0-0.88,0.03-1.38,0.09c-1.21,0.14-1.54,0.611-1.62,1.59c-0.09,0.89-0.09,1.67-0.09,6.03v4.97
			c0,4.11,0.17,5.9,0.92,6.4c0.67,0.45,1.75,0.64,5,0.64c2.21,0,4.05-0.03,5.05-0.84c0.54-0.44,0.96-1.139,1.08-1.67
			C111.39,40.72,111.48,40.59,111.73,40.59"/>
		<path clip-path="url(#SVGID_4_)" fill="#FFFFFF" d="M109.57,7.15c0.09,0,0.11,0.06,0.11,0.189c0,0.111-0.1,0.92-0.21,1.241
			c-0.08,0.229-0.15,0.29-0.85,0.29c-1.95,0-2.85-0.071-3.95-0.071c-0.31,0-1.16,0.04-1.7,0.04c-0.18,0-0.27-0.04-0.27-0.109
			c0-0.06,0.05-0.091,0.21-0.091c0.21,0,0.37-0.019,0.49-0.04c0.27-0.05,0.34-0.279,0.39-0.599c0.07-0.451,0.07-1.3,0.07-2.29V3.809
			c0-1.639,0-1.939-0.03-2.29c-0.02-0.369-0.13-0.539-0.58-0.619c-0.11-0.021-0.27-0.03-0.45-0.03c-0.14,0-0.23-0.021-0.23-0.09
			c0-0.08,0.1-0.101,0.3-0.101c0.64,0,1.49,0.031,1.86,0.031c0.32,0,1.31-0.031,1.84-0.031c0.19,0,0.29,0.021,0.29,0.101
			c0,0.069-0.08,0.09-0.25,0.09c-0.15,0-0.36,0.009-0.53,0.03c-0.36,0.06-0.47,0.239-0.5,0.619c-0.03,0.351-0.03,0.651-0.03,2.29
			V5.71c0,1.379,0,2.12,0.29,2.32c0.23,0.16,0.58,0.229,1.64,0.229c0.72,0,1.25-0.009,1.59-0.299c0.16-0.14,0.32-0.441,0.35-0.651
			C109.43,7.219,109.46,7.15,109.57,7.15"/>
		<path clip-path="url(#SVGID_4_)" fill="#FFFFFF" d="M98.31,8.64c0.15,0,0.22,0.03,0.22,0.091c0,0.069-0.11,0.099-0.26,0.099
			c-0.89,0-1.74-0.03-2.11-0.03c-0.31,0-1.17,0.03-1.71,0.03c-0.17,0-0.27-0.03-0.27-0.099c0-0.061,0.05-0.091,0.22-0.091
			c0.2,0,0.36-0.02,0.48-0.04c0.28-0.05,0.36-0.23,0.4-0.54c0.07-0.449,0.07-1.31,0.07-2.35v-1.9c0-1.64,0-1.94-0.03-2.29
			c-0.03-0.369-0.16-0.55-0.46-0.6c-0.15-0.04-0.33-0.05-0.49-0.05c-0.14,0-0.22-0.02-0.22-0.11c0-0.059,0.11-0.08,0.33-0.08
			c0.51,0,1.37,0.03,1.76,0.03c0.34,0,1.14-0.03,1.65-0.03c0.18,0,0.29,0.021,0.29,0.08c0,0.09-0.08,0.11-0.22,0.11
			c-0.13,0-0.24,0.01-0.41,0.031c-0.36,0.059-0.47,0.239-0.5,0.619c-0.02,0.35-0.02,0.65-0.02,2.29v1.9c0,1.04,0,1.901,0.05,2.361
			c0.04,0.29,0.14,0.479,0.54,0.529C97.81,8.62,98.11,8.64,98.31,8.64"/>
		<path clip-path="url(#SVGID_4_)" fill="#FFFFFF" d="M90.46,0.83c0,0.229-0.04,0.97-0.04,1.25c-0.01,0.11-0.04,0.17-0.12,0.17
			c-0.11,0-0.14-0.05-0.15-0.21l-0.01-0.12c-0.03-0.28-0.4-0.58-1.6-0.611L86.83,1.28v4.43c0,0.99,0,1.84,0.07,2.309
			C86.94,8.32,87.02,8.55,87.43,8.6c0.19,0.02,0.48,0.04,0.69,0.04c0.15,0,0.21,0.03,0.21,0.09c0,0.07-0.1,0.1-0.25,0.1
			c-0.9,0-1.75-0.03-2.13-0.03c-0.31,0-1.17,0.03-1.71,0.03c-0.17,0-0.27-0.03-0.27-0.1c0-0.06,0.05-0.09,0.22-0.09
			c0.2,0,0.36-0.02,0.49-0.04c0.27-0.05,0.35-0.28,0.39-0.6c0.07-0.45,0.07-1.3,0.07-2.29V1.28l-2.02,0.05
			c-0.79,0.02-1.11,0.07-1.32,0.31c-0.13,0.16-0.2,0.29-0.23,0.379C81.54,2.1,81.5,2.15,81.42,2.15c-0.09,0-0.12-0.06-0.12-0.18
			c0-0.17,0.26-1.15,0.29-1.24c0.04-0.14,0.08-0.2,0.16-0.2c0.11,0,0.24,0.1,0.58,0.13c0.39,0.03,0.91,0.05,1.36,0.05h5.36
			c0.87,0,1.2-0.11,1.3-0.11S90.46,0.67,90.46,0.83"/>
		<path clip-path="url(#SVGID_4_)" fill="#FFFFFF" d="M82.29,33.44c0,5.75-5.57,10.579-14.28,11.319l-0.08-1
			c3.99-0.29,10.36-2.17,10.36-9.54c0-6.71-6.09-10.309-12.68-10.309l-0.02-0.941c0.1-0.009,0.21-0.009,0.32-0.009
			C75.29,22.96,82.29,26.929,82.29,33.44"/>
		<path clip-path="url(#SVGID_4_)" fill="#FFFFFF" d="M75.5,3.92c1.62,1,2.22,1.72,2.22,2.75c0,0.62-0.3,1.37-1.27,1.87
			c-0.68,0.35-1.44,0.45-2.16,0.45c-0.78,0-1.39-0.08-1.98-0.28c-0.21-0.08-0.26-0.13-0.26-0.37c0-0.59,0.06-1.24,0.07-1.41
			c0.02-0.17,0.06-0.29,0.17-0.29c0.12,0,0.13,0.1,0.13,0.19c0,0.14,0.06,0.37,0.12,0.55c0.3,0.8,1.1,1.09,1.94,1.09
			c1.22,0,1.82-0.66,1.82-1.23c0-0.53-0.21-1.04-1.33-1.73l-0.62-0.39c-1.49-0.92-2.01-1.679-2.01-2.55c0-1.19,1.25-2.04,3.13-2.04
			c0.88,0,1.45,0.1,1.8,0.18c0.13,0.021,0.19,0.05,0.19,0.13c0,0.141-0.05,0.45-0.05,1.29c0,0.24-0.04,0.33-0.15,0.33
			c-0.09,0-0.14-0.07-0.14-0.2c0-0.09-0.06-0.43-0.35-0.71c-0.2-0.2-0.59-0.53-1.48-0.53c-1,0-1.61,0.47-1.61,1.11
			c0,0.5,0.31,0.88,1.44,1.561L75.5,3.92z"/>
		<path clip-path="url(#SVGID_4_)" fill="#FFFFFF" d="M69.21,8.64c0.1,0,0.17,0.011,0.17,0.091c0,0.079-0.12,0.1-0.62,0.1
			c-0.49,0-1.48,0-2.56-0.021c-0.25-0.01-0.41-0.01-0.41-0.079c0-0.07,0.05-0.091,0.19-0.101c0.09-0.019,0.19-0.12,0.12-0.25
			l-1.08-2.29c-0.03-0.049-0.07-0.07-0.14-0.07h-3.02c-0.07,0-0.1,0.021-0.12,0.091l-0.73,1.54C60.87,7.92,60.8,8.18,60.8,8.31
			c0,0.191,0.12,0.33,0.54,0.33h0.21c0.16,0,0.2,0.021,0.2,0.091c0,0.079-0.08,0.1-0.23,0.1c-0.43,0-1.01-0.031-1.44-0.031
			c-0.14,0-0.89,0.031-1.59,0.031c-0.18,0-0.26-0.021-0.26-0.1c0-0.07,0.05-0.091,0.16-0.091c0.12,0,0.31-0.01,0.42-0.019
			c0.62-0.071,0.88-0.43,1.15-0.97l3.4-6.78c0.17-0.311,0.25-0.43,0.38-0.43s0.21,0.1,0.34,0.35c0.33,0.589,2.5,4.99,3.36,6.629
			c0.52,0.97,0.91,1.121,1.2,1.18C68.84,8.63,69.04,8.64,69.21,8.64 M64.62,5.481c0.07,0,0.09-0.03,0.07-0.07l-1.22-2.66
			c-0.01-0.041-0.02-0.1-0.07-0.1c-0.04,0-0.06,0.059-0.08,0.1l-1.24,2.65c-0.02,0.05,0,0.08,0.05,0.08H64.62z"/>
		<path clip-path="url(#SVGID_4_)" fill="#FFFFFF" d="M67.93,43.76l0.08,1c-0.76,0.07-1.54,0.101-2.35,0.101
			c-11.43,0-16.18-5.951-16.18-10.981c0-4.479,4.83-10.8,16.11-10.91l0.02,0.94c-6.96,0-12.17,3.071-12.17,9.19
			c0,6.511,5.84,10.7,13.34,10.7C67.13,43.8,67.52,43.79,67.93,43.76"/>
		<path clip-path="url(#SVGID_4_)" fill="#FFFFFF" d="M55.5,6.83c0.1,0,0.12,0.07,0.12,0.16c0,0.13-0.16,1.069-0.3,1.44
			c-0.06,0.18-0.12,0.23-0.35,0.31c-0.54,0.17-1.57,0.25-2.44,0.25c-1.85,0-3.41-0.33-4.65-1.181C46.56,6.88,46.2,5.67,46.2,4.63
			c0-0.74,0.29-2.01,1.59-2.96c0.98-0.71,2.26-1.14,4.28-1.14c0.84,0,1.35,0.04,1.97,0.1c0.51,0.06,0.95,0.16,1.35,0.19
			c0.15,0.01,0.21,0.06,0.21,0.13c0,0.08-0.04,0.21-0.07,0.59c-0.03,0.36-0.02,0.95-0.04,1.17c-0.02,0.16-0.04,0.25-0.17,0.25
			c-0.1,0-0.13-0.09-0.13-0.24C55.18,2.38,55,2.01,54.66,1.73c-0.45-0.38-1.5-0.671-2.75-0.671c-1.18,0-1.95,0.231-2.55,0.671
			c-0.99,0.72-1.24,1.74-1.24,2.789c0,2.571,2.45,3.841,4.26,3.841c1.21,0,1.94-0.11,2.48-0.6c0.23-0.21,0.41-0.52,0.46-0.72
			C55.37,6.87,55.39,6.83,55.5,6.83"/>
		<path clip-path="url(#SVGID_4_)" fill="#FFFFFF" d="M41.77,44.08c0.21,0,0.33,0.03,0.33,0.14c0,0.16-0.37,0.25-0.87,0.25
			c-0.92,0-5.43-0.09-6.97-0.17c-0.96-0.06-1.17-0.14-1.17-0.281c0-0.109,0.09-0.169,0.3-0.189c0.2-0.03,0.25-0.51,0.16-1.01
			l-2-14.41h-0.12l-9.48,13.47l-1.32-0.93l12.26-17.54c0.16-0.25,0.33-0.45,0.62-0.45s0.42,0.22,0.5,0.75l2.79,17.16
			c0.17,1,0.46,2.56,2.26,2.96C40.27,44.08,41.35,44.08,41.77,44.08"/>
		<path clip-path="url(#SVGID_4_)" fill="#FFFFFF" d="M21.95,41.88l-0.74,1.05c-0.88,1.23-1,1.48-1.38,1.48
			c-0.29,0-0.5-0.28-1.29-1.28c-1.08-1.37-4.67-6.2-4.88-6.479c-0.37-0.511-5.04-7.21-5.5-7.96H7.99l-1.67,12.96
			C6.28,42.09,6.28,42.6,6.28,43.07c0,0.42,0.46,0.78,1.09,0.871C8.08,44.05,8.7,44.08,8.95,44.08c0.17,0,0.34,0.05,0.34,0.14
			c0,0.19-0.26,0.25-0.75,0.25c-1.55,0-3.55-0.09-3.88-0.09c-0.38,0-2.38,0.09-3.51,0.09c-0.41,0-0.7-0.06-0.7-0.25
			c0-0.09,0.2-0.14,0.41-0.14c0.34,0,0.63,0,1.25-0.09c1.38-0.16,1.5-1.25,1.67-2.31l3-18.22c0.09-0.3,0.21-0.5,0.46-0.5
			s0.42,0.11,0.63,0.42l12.76,17.57L21.95,41.88z"/>
	</g>
</g>
<polygon fill="#A16345" points="148.824,63.199 107.947,68.74 67.072,63.199 67.072,62.504 107.947,66.132 148.824,62.504 "/>
</svg>
